<?xml version="1.0" encoding="utf-8" standalone="no"?>
<!DOCTYPE svg PUBLIC "-//W3C//DTD SVG 1.1//EN"
  "http://www.w3.org/Graphics/SVG/1.1/DTD/svg11.dtd">
<!-- Created with matplotlib (https://matplotlib.org/) -->
<svg height="576pt" version="1.1" viewBox="0 0 1152 576" width="1152pt" xmlns="http://www.w3.org/2000/svg" xmlns:xlink="http://www.w3.org/1999/xlink">
 <metadata>
  <rdf:RDF xmlns:cc="http://creativecommons.org/ns#" xmlns:dc="http://purl.org/dc/elements/1.1/" xmlns:rdf="http://www.w3.org/1999/02/22-rdf-syntax-ns#">
   <cc:Work>
    <dc:type rdf:resource="http://purl.org/dc/dcmitype/StillImage"/>
    <dc:date>2021-04-03T10:38:08.744636</dc:date>
    <dc:format>image/svg+xml</dc:format>
    <dc:creator>
     <cc:Agent>
      <dc:title>Matplotlib v3.3.2, https://matplotlib.org/</dc:title>
     </cc:Agent>
    </dc:creator>
   </cc:Work>
  </rdf:RDF>
 </metadata>
 <defs>
  <style type="text/css">*{stroke-linecap:butt;stroke-linejoin:round;}</style>
 </defs>
 <g id="figure_1">
  <g id="patch_1">
   <path d="M 0 576 
L 1152 576 
L 1152 0 
L 0 0 
z
" style="fill:none;"/>
  </g>
  <g id="axes_1">
   <g id="patch_2">
    <path d="M 144 504 
L 1036.8 504 
L 1036.8 69.12 
L 144 69.12 
z
" style="fill:#eaeaf2;"/>
   </g>
   <g id="matplotlib.axis_1">
    <g id="xtick_1">
     <g id="line2d_1">
      <path clip-path="url(#p12accb8ef5)" d="M 165.211022 504 
L 165.211022 69.12 
" style="fill:none;stroke:#ffffff;stroke-linecap:round;"/>
     </g>
     <g id="line2d_2"/>
     <g id="text_1">
      <!-- 0.5 -->
      <g style="fill:#262626;" transform="translate(158.261022 518.157812)scale(0.1 -0.1)">
       <defs>
        <path d="M 4.15625 35.296875 
Q 4.15625 48 6.765625 55.734375 
Q 9.375 63.484375 14.515625 67.671875 
Q 19.671875 71.875 27.484375 71.875 
Q 33.25 71.875 37.59375 69.546875 
Q 41.9375 67.234375 44.765625 62.859375 
Q 47.609375 58.5 49.21875 52.21875 
Q 50.828125 45.953125 50.828125 35.296875 
Q 50.828125 22.703125 48.234375 14.96875 
Q 45.65625 7.234375 40.5 3 
Q 35.359375 -1.21875 27.484375 -1.21875 
Q 17.140625 -1.21875 11.234375 6.203125 
Q 4.15625 15.140625 4.15625 35.296875 
z
M 13.1875 35.296875 
Q 13.1875 17.671875 17.3125 11.828125 
Q 21.4375 6 27.484375 6 
Q 33.546875 6 37.671875 11.859375 
Q 41.796875 17.71875 41.796875 35.296875 
Q 41.796875 52.984375 37.671875 58.78125 
Q 33.546875 64.59375 27.390625 64.59375 
Q 21.34375 64.59375 17.71875 59.46875 
Q 13.1875 52.9375 13.1875 35.296875 
z
" id="ArialMT-48"/>
        <path d="M 9.078125 0 
L 9.078125 10.015625 
L 19.09375 10.015625 
L 19.09375 0 
z
" id="ArialMT-46"/>
        <path d="M 4.15625 18.75 
L 13.375 19.53125 
Q 14.40625 12.796875 18.140625 9.390625 
Q 21.875 6 27.15625 6 
Q 33.5 6 37.890625 10.78125 
Q 42.28125 15.578125 42.28125 23.484375 
Q 42.28125 31 38.0625 35.34375 
Q 33.84375 39.703125 27 39.703125 
Q 22.75 39.703125 19.328125 37.765625 
Q 15.921875 35.84375 13.96875 32.765625 
L 5.71875 33.84375 
L 12.640625 70.609375 
L 48.25 70.609375 
L 48.25 62.203125 
L 19.671875 62.203125 
L 15.828125 42.96875 
Q 22.265625 47.46875 29.34375 47.46875 
Q 38.71875 47.46875 45.15625 40.96875 
Q 51.609375 34.46875 51.609375 24.265625 
Q 51.609375 14.546875 45.953125 7.46875 
Q 39.0625 -1.21875 27.15625 -1.21875 
Q 17.390625 -1.21875 11.203125 4.25 
Q 5.03125 9.71875 4.15625 18.75 
z
" id="ArialMT-53"/>
       </defs>
       <use xlink:href="#ArialMT-48"/>
       <use x="55.615234" xlink:href="#ArialMT-46"/>
       <use x="83.398438" xlink:href="#ArialMT-53"/>
      </g>
     </g>
    </g>
    <g id="xtick_2">
     <g id="line2d_3">
      <path clip-path="url(#p12accb8ef5)" d="M 358.918985 504 
L 358.918985 69.12 
" style="fill:none;stroke:#ffffff;stroke-linecap:round;"/>
     </g>
     <g id="line2d_4"/>
     <g id="text_2">
      <!-- 0.6 -->
      <g style="fill:#262626;" transform="translate(351.968985 518.157812)scale(0.1 -0.1)">
       <defs>
        <path d="M 49.75 54.046875 
L 41.015625 53.375 
Q 39.84375 58.546875 37.703125 60.890625 
Q 34.125 64.65625 28.90625 64.65625 
Q 24.703125 64.65625 21.53125 62.3125 
Q 17.390625 59.28125 14.984375 53.46875 
Q 12.59375 47.65625 12.5 36.921875 
Q 15.671875 41.75 20.265625 44.09375 
Q 24.859375 46.4375 29.890625 46.4375 
Q 38.671875 46.4375 44.84375 39.96875 
Q 51.03125 33.5 51.03125 23.25 
Q 51.03125 16.5 48.125 10.71875 
Q 45.21875 4.9375 40.140625 1.859375 
Q 35.0625 -1.21875 28.609375 -1.21875 
Q 17.625 -1.21875 10.6875 6.859375 
Q 3.765625 14.9375 3.765625 33.5 
Q 3.765625 54.25 11.421875 63.671875 
Q 18.109375 71.875 29.4375 71.875 
Q 37.890625 71.875 43.28125 67.140625 
Q 48.6875 62.40625 49.75 54.046875 
z
M 13.875 23.1875 
Q 13.875 18.65625 15.796875 14.5 
Q 17.71875 10.359375 21.1875 8.171875 
Q 24.65625 6 28.46875 6 
Q 34.03125 6 38.03125 10.484375 
Q 42.046875 14.984375 42.046875 22.703125 
Q 42.046875 30.125 38.078125 34.390625 
Q 34.125 38.671875 28.125 38.671875 
Q 22.171875 38.671875 18.015625 34.390625 
Q 13.875 30.125 13.875 23.1875 
z
" id="ArialMT-54"/>
       </defs>
       <use xlink:href="#ArialMT-48"/>
       <use x="55.615234" xlink:href="#ArialMT-46"/>
       <use x="83.398438" xlink:href="#ArialMT-54"/>
      </g>
     </g>
    </g>
    <g id="xtick_3">
     <g id="line2d_5">
      <path clip-path="url(#p12accb8ef5)" d="M 552.626947 504 
L 552.626947 69.12 
" style="fill:none;stroke:#ffffff;stroke-linecap:round;"/>
     </g>
     <g id="line2d_6"/>
     <g id="text_3">
      <!-- 0.7 -->
      <g style="fill:#262626;" transform="translate(545.676947 518.157812)scale(0.1 -0.1)">
       <defs>
        <path d="M 4.734375 62.203125 
L 4.734375 70.65625 
L 51.078125 70.65625 
L 51.078125 63.8125 
Q 44.234375 56.546875 37.515625 44.484375 
Q 30.8125 32.421875 27.15625 19.671875 
Q 24.515625 10.6875 23.78125 0 
L 14.75 0 
Q 14.890625 8.453125 18.0625 20.40625 
Q 21.234375 32.375 27.171875 43.484375 
Q 33.109375 54.59375 39.796875 62.203125 
z
" id="ArialMT-55"/>
       </defs>
       <use xlink:href="#ArialMT-48"/>
       <use x="55.615234" xlink:href="#ArialMT-46"/>
       <use x="83.398438" xlink:href="#ArialMT-55"/>
      </g>
     </g>
    </g>
    <g id="xtick_4">
     <g id="line2d_7">
      <path clip-path="url(#p12accb8ef5)" d="M 746.33491 504 
L 746.33491 69.12 
" style="fill:none;stroke:#ffffff;stroke-linecap:round;"/>
     </g>
     <g id="line2d_8"/>
     <g id="text_4">
      <!-- 0.8 -->
      <g style="fill:#262626;" transform="translate(739.38491 518.157812)scale(0.1 -0.1)">
       <defs>
        <path d="M 17.671875 38.8125 
Q 12.203125 40.828125 9.5625 44.53125 
Q 6.9375 48.25 6.9375 53.421875 
Q 6.9375 61.234375 12.546875 66.546875 
Q 18.171875 71.875 27.484375 71.875 
Q 36.859375 71.875 42.578125 66.421875 
Q 48.296875 60.984375 48.296875 53.171875 
Q 48.296875 48.1875 45.671875 44.5 
Q 43.0625 40.828125 37.75 38.8125 
Q 44.34375 36.671875 47.78125 31.875 
Q 51.21875 27.09375 51.21875 20.453125 
Q 51.21875 11.28125 44.71875 5.03125 
Q 38.234375 -1.21875 27.640625 -1.21875 
Q 17.046875 -1.21875 10.546875 5.046875 
Q 4.046875 11.328125 4.046875 20.703125 
Q 4.046875 27.6875 7.59375 32.390625 
Q 11.140625 37.109375 17.671875 38.8125 
z
M 15.921875 53.71875 
Q 15.921875 48.640625 19.1875 45.40625 
Q 22.46875 42.1875 27.6875 42.1875 
Q 32.765625 42.1875 36.015625 45.375 
Q 39.265625 48.578125 39.265625 53.21875 
Q 39.265625 58.0625 35.90625 61.359375 
Q 32.5625 64.65625 27.59375 64.65625 
Q 22.5625 64.65625 19.234375 61.421875 
Q 15.921875 58.203125 15.921875 53.71875 
z
M 13.09375 20.65625 
Q 13.09375 16.890625 14.875 13.375 
Q 16.65625 9.859375 20.171875 7.921875 
Q 23.6875 6 27.734375 6 
Q 34.03125 6 38.125 10.046875 
Q 42.234375 14.109375 42.234375 20.359375 
Q 42.234375 26.703125 38.015625 30.859375 
Q 33.796875 35.015625 27.4375 35.015625 
Q 21.234375 35.015625 17.15625 30.90625 
Q 13.09375 26.8125 13.09375 20.65625 
z
" id="ArialMT-56"/>
       </defs>
       <use xlink:href="#ArialMT-48"/>
       <use x="55.615234" xlink:href="#ArialMT-46"/>
       <use x="83.398438" xlink:href="#ArialMT-56"/>
      </g>
     </g>
    </g>
    <g id="xtick_5">
     <g id="line2d_9">
      <path clip-path="url(#p12accb8ef5)" d="M 940.042873 504 
L 940.042873 69.12 
" style="fill:none;stroke:#ffffff;stroke-linecap:round;"/>
     </g>
     <g id="line2d_10"/>
     <g id="text_5">
      <!-- 0.9 -->
      <g style="fill:#262626;" transform="translate(933.092873 518.157812)scale(0.1 -0.1)">
       <defs>
        <path d="M 5.46875 16.546875 
L 13.921875 17.328125 
Q 14.984375 11.375 18.015625 8.6875 
Q 21.046875 6 25.78125 6 
Q 29.828125 6 32.875 7.859375 
Q 35.9375 9.71875 37.890625 12.8125 
Q 39.84375 15.921875 41.15625 21.1875 
Q 42.484375 26.46875 42.484375 31.9375 
Q 42.484375 32.515625 42.4375 33.6875 
Q 39.796875 29.5 35.234375 26.875 
Q 30.671875 24.265625 25.34375 24.265625 
Q 16.453125 24.265625 10.296875 30.703125 
Q 4.15625 37.15625 4.15625 47.703125 
Q 4.15625 58.59375 10.578125 65.234375 
Q 17 71.875 26.65625 71.875 
Q 33.640625 71.875 39.421875 68.109375 
Q 45.21875 64.359375 48.21875 57.390625 
Q 51.21875 50.4375 51.21875 37.25 
Q 51.21875 23.53125 48.234375 15.40625 
Q 45.265625 7.28125 39.375 3.03125 
Q 33.5 -1.21875 25.59375 -1.21875 
Q 17.1875 -1.21875 11.859375 3.4375 
Q 6.546875 8.109375 5.46875 16.546875 
z
M 41.453125 48.140625 
Q 41.453125 55.71875 37.421875 60.15625 
Q 33.40625 64.59375 27.734375 64.59375 
Q 21.875 64.59375 17.53125 59.8125 
Q 13.1875 55.03125 13.1875 47.40625 
Q 13.1875 40.578125 17.3125 36.296875 
Q 21.4375 32.03125 27.484375 32.03125 
Q 33.59375 32.03125 37.515625 36.296875 
Q 41.453125 40.578125 41.453125 48.140625 
z
" id="ArialMT-57"/>
       </defs>
       <use xlink:href="#ArialMT-48"/>
       <use x="55.615234" xlink:href="#ArialMT-46"/>
       <use x="83.398438" xlink:href="#ArialMT-57"/>
      </g>
     </g>
    </g>
    <g id="text_6">
     <!-- Human Development Index -->
     <g style="fill:#262626;" transform="translate(523.757187 532.018906)scale(0.11 -0.11)">
      <defs>
       <path d="M 8.015625 0 
L 8.015625 71.578125 
L 17.484375 71.578125 
L 17.484375 42.1875 
L 54.6875 42.1875 
L 54.6875 71.578125 
L 64.15625 71.578125 
L 64.15625 0 
L 54.6875 0 
L 54.6875 33.734375 
L 17.484375 33.734375 
L 17.484375 0 
z
" id="ArialMT-72"/>
       <path d="M 40.578125 0 
L 40.578125 7.625 
Q 34.515625 -1.171875 24.125 -1.171875 
Q 19.53125 -1.171875 15.546875 0.578125 
Q 11.578125 2.34375 9.640625 5 
Q 7.71875 7.671875 6.9375 11.53125 
Q 6.390625 14.109375 6.390625 19.734375 
L 6.390625 51.859375 
L 15.1875 51.859375 
L 15.1875 23.09375 
Q 15.1875 16.21875 15.71875 13.8125 
Q 16.546875 10.359375 19.234375 8.375 
Q 21.921875 6.390625 25.875 6.390625 
Q 29.828125 6.390625 33.296875 8.421875 
Q 36.765625 10.453125 38.203125 13.9375 
Q 39.65625 17.4375 39.65625 24.078125 
L 39.65625 51.859375 
L 48.4375 51.859375 
L 48.4375 0 
z
" id="ArialMT-117"/>
       <path d="M 6.59375 0 
L 6.59375 51.859375 
L 14.453125 51.859375 
L 14.453125 44.578125 
Q 16.890625 48.390625 20.9375 50.703125 
Q 25 53.03125 30.171875 53.03125 
Q 35.9375 53.03125 39.625 50.640625 
Q 43.3125 48.25 44.828125 43.953125 
Q 50.984375 53.03125 60.84375 53.03125 
Q 68.5625 53.03125 72.703125 48.75 
Q 76.859375 44.484375 76.859375 35.59375 
L 76.859375 0 
L 68.109375 0 
L 68.109375 32.671875 
Q 68.109375 37.9375 67.25 40.25 
Q 66.40625 42.578125 64.15625 43.984375 
Q 61.921875 45.40625 58.890625 45.40625 
Q 53.421875 45.40625 49.796875 41.765625 
Q 46.1875 38.140625 46.1875 30.125 
L 46.1875 0 
L 37.40625 0 
L 37.40625 33.6875 
Q 37.40625 39.546875 35.25 42.46875 
Q 33.109375 45.40625 28.21875 45.40625 
Q 24.515625 45.40625 21.359375 43.453125 
Q 18.21875 41.5 16.796875 37.734375 
Q 15.375 33.984375 15.375 26.90625 
L 15.375 0 
z
" id="ArialMT-109"/>
       <path d="M 40.4375 6.390625 
Q 35.546875 2.25 31.03125 0.53125 
Q 26.515625 -1.171875 21.34375 -1.171875 
Q 12.796875 -1.171875 8.203125 3 
Q 3.609375 7.171875 3.609375 13.671875 
Q 3.609375 17.484375 5.34375 20.625 
Q 7.078125 23.78125 9.890625 25.6875 
Q 12.703125 27.59375 16.21875 28.5625 
Q 18.796875 29.25 24.03125 29.890625 
Q 34.671875 31.15625 39.703125 32.90625 
Q 39.75 34.71875 39.75 35.203125 
Q 39.75 40.578125 37.25 42.78125 
Q 33.890625 45.75 27.25 45.75 
Q 21.046875 45.75 18.09375 43.578125 
Q 15.140625 41.40625 13.71875 35.890625 
L 5.125 37.0625 
Q 6.296875 42.578125 8.984375 45.96875 
Q 11.671875 49.359375 16.75 51.1875 
Q 21.828125 53.03125 28.515625 53.03125 
Q 35.15625 53.03125 39.296875 51.46875 
Q 43.453125 49.90625 45.40625 47.53125 
Q 47.359375 45.171875 48.140625 41.546875 
Q 48.578125 39.3125 48.578125 33.453125 
L 48.578125 21.734375 
Q 48.578125 9.46875 49.140625 6.21875 
Q 49.703125 2.984375 51.375 0 
L 42.1875 0 
Q 40.828125 2.734375 40.4375 6.390625 
z
M 39.703125 26.03125 
Q 34.90625 24.078125 25.34375 22.703125 
Q 19.921875 21.921875 17.671875 20.9375 
Q 15.4375 19.96875 14.203125 18.09375 
Q 12.984375 16.21875 12.984375 13.921875 
Q 12.984375 10.40625 15.640625 8.0625 
Q 18.3125 5.71875 23.4375 5.71875 
Q 28.515625 5.71875 32.46875 7.9375 
Q 36.421875 10.15625 38.28125 14.015625 
Q 39.703125 17 39.703125 22.796875 
z
" id="ArialMT-97"/>
       <path d="M 6.59375 0 
L 6.59375 51.859375 
L 14.5 51.859375 
L 14.5 44.484375 
Q 20.21875 53.03125 31 53.03125 
Q 35.6875 53.03125 39.625 51.34375 
Q 43.5625 49.65625 45.515625 46.921875 
Q 47.46875 44.1875 48.25 40.4375 
Q 48.734375 37.984375 48.734375 31.890625 
L 48.734375 0 
L 39.9375 0 
L 39.9375 31.546875 
Q 39.9375 36.921875 38.90625 39.578125 
Q 37.890625 42.234375 35.28125 43.8125 
Q 32.671875 45.40625 29.15625 45.40625 
Q 23.53125 45.40625 19.453125 41.84375 
Q 15.375 38.28125 15.375 28.328125 
L 15.375 0 
z
" id="ArialMT-110"/>
       <path id="ArialMT-32"/>
       <path d="M 7.71875 0 
L 7.71875 71.578125 
L 32.375 71.578125 
Q 40.71875 71.578125 45.125 70.5625 
Q 51.265625 69.140625 55.609375 65.4375 
Q 61.28125 60.640625 64.078125 53.1875 
Q 66.890625 45.75 66.890625 36.1875 
Q 66.890625 28.03125 64.984375 21.734375 
Q 63.09375 15.4375 60.109375 11.296875 
Q 57.125 7.171875 53.578125 4.796875 
Q 50.046875 2.4375 45.046875 1.21875 
Q 40.046875 0 33.546875 0 
z
M 17.1875 8.453125 
L 32.46875 8.453125 
Q 39.546875 8.453125 43.578125 9.765625 
Q 47.609375 11.078125 50 13.484375 
Q 53.375 16.84375 55.25 22.53125 
Q 57.125 28.21875 57.125 36.328125 
Q 57.125 47.5625 53.4375 53.59375 
Q 49.75 59.625 44.484375 61.671875 
Q 40.671875 63.140625 32.234375 63.140625 
L 17.1875 63.140625 
z
" id="ArialMT-68"/>
       <path d="M 42.09375 16.703125 
L 51.171875 15.578125 
Q 49.03125 7.625 43.21875 3.21875 
Q 37.40625 -1.171875 28.375 -1.171875 
Q 17 -1.171875 10.328125 5.828125 
Q 3.65625 12.84375 3.65625 25.484375 
Q 3.65625 38.578125 10.390625 45.796875 
Q 17.140625 53.03125 27.875 53.03125 
Q 38.28125 53.03125 44.875 45.953125 
Q 51.46875 38.875 51.46875 26.03125 
Q 51.46875 25.25 51.421875 23.6875 
L 12.75 23.6875 
Q 13.234375 15.140625 17.578125 10.59375 
Q 21.921875 6.0625 28.421875 6.0625 
Q 33.25 6.0625 36.671875 8.59375 
Q 40.09375 11.140625 42.09375 16.703125 
z
M 13.234375 30.90625 
L 42.1875 30.90625 
Q 41.609375 37.453125 38.875 40.71875 
Q 34.671875 45.796875 27.984375 45.796875 
Q 21.921875 45.796875 17.796875 41.75 
Q 13.671875 37.703125 13.234375 30.90625 
z
" id="ArialMT-101"/>
       <path d="M 21 0 
L 1.265625 51.859375 
L 10.546875 51.859375 
L 21.6875 20.796875 
Q 23.484375 15.765625 25 10.359375 
Q 26.171875 14.453125 28.265625 20.21875 
L 39.796875 51.859375 
L 48.828125 51.859375 
L 29.203125 0 
z
" id="ArialMT-118"/>
       <path d="M 6.390625 0 
L 6.390625 71.578125 
L 15.1875 71.578125 
L 15.1875 0 
z
" id="ArialMT-108"/>
       <path d="M 3.328125 25.921875 
Q 3.328125 40.328125 11.328125 47.265625 
Q 18.015625 53.03125 27.640625 53.03125 
Q 38.328125 53.03125 45.109375 46.015625 
Q 51.90625 39.015625 51.90625 26.65625 
Q 51.90625 16.65625 48.90625 10.90625 
Q 45.90625 5.171875 40.15625 2 
Q 34.421875 -1.171875 27.640625 -1.171875 
Q 16.75 -1.171875 10.03125 5.8125 
Q 3.328125 12.796875 3.328125 25.921875 
z
M 12.359375 25.921875 
Q 12.359375 15.96875 16.703125 11.015625 
Q 21.046875 6.0625 27.640625 6.0625 
Q 34.1875 6.0625 38.53125 11.03125 
Q 42.875 16.015625 42.875 26.21875 
Q 42.875 35.84375 38.5 40.796875 
Q 34.125 45.75 27.640625 45.75 
Q 21.046875 45.75 16.703125 40.8125 
Q 12.359375 35.890625 12.359375 25.921875 
z
" id="ArialMT-111"/>
       <path d="M 6.59375 -19.875 
L 6.59375 51.859375 
L 14.59375 51.859375 
L 14.59375 45.125 
Q 17.4375 49.078125 21 51.046875 
Q 24.5625 53.03125 29.640625 53.03125 
Q 36.28125 53.03125 41.359375 49.609375 
Q 46.4375 46.1875 49.015625 39.953125 
Q 51.609375 33.734375 51.609375 26.3125 
Q 51.609375 18.359375 48.75 11.984375 
Q 45.90625 5.609375 40.453125 2.21875 
Q 35.015625 -1.171875 29 -1.171875 
Q 24.609375 -1.171875 21.109375 0.6875 
Q 17.625 2.546875 15.375 5.375 
L 15.375 -19.875 
z
M 14.546875 25.640625 
Q 14.546875 15.625 18.59375 10.84375 
Q 22.65625 6.0625 28.421875 6.0625 
Q 34.28125 6.0625 38.453125 11.015625 
Q 42.625 15.96875 42.625 26.375 
Q 42.625 36.28125 38.546875 41.203125 
Q 34.46875 46.140625 28.8125 46.140625 
Q 23.1875 46.140625 18.859375 40.890625 
Q 14.546875 35.640625 14.546875 25.640625 
z
" id="ArialMT-112"/>
       <path d="M 25.78125 7.859375 
L 27.046875 0.09375 
Q 23.34375 -0.6875 20.40625 -0.6875 
Q 15.625 -0.6875 12.984375 0.828125 
Q 10.359375 2.34375 9.28125 4.8125 
Q 8.203125 7.28125 8.203125 15.1875 
L 8.203125 45.015625 
L 1.765625 45.015625 
L 1.765625 51.859375 
L 8.203125 51.859375 
L 8.203125 64.703125 
L 16.9375 69.96875 
L 16.9375 51.859375 
L 25.78125 51.859375 
L 25.78125 45.015625 
L 16.9375 45.015625 
L 16.9375 14.703125 
Q 16.9375 10.9375 17.40625 9.859375 
Q 17.875 8.796875 18.921875 8.15625 
Q 19.96875 7.515625 21.921875 7.515625 
Q 23.390625 7.515625 25.78125 7.859375 
z
" id="ArialMT-116"/>
       <path d="M 9.328125 0 
L 9.328125 71.578125 
L 18.796875 71.578125 
L 18.796875 0 
z
" id="ArialMT-73"/>
       <path d="M 40.234375 0 
L 40.234375 6.546875 
Q 35.296875 -1.171875 25.734375 -1.171875 
Q 19.53125 -1.171875 14.328125 2.25 
Q 9.125 5.671875 6.265625 11.796875 
Q 3.421875 17.921875 3.421875 25.875 
Q 3.421875 33.640625 6 39.96875 
Q 8.59375 46.296875 13.765625 49.65625 
Q 18.953125 53.03125 25.34375 53.03125 
Q 30.03125 53.03125 33.6875 51.046875 
Q 37.359375 49.078125 39.65625 45.90625 
L 39.65625 71.578125 
L 48.390625 71.578125 
L 48.390625 0 
z
M 12.453125 25.875 
Q 12.453125 15.921875 16.640625 10.984375 
Q 20.84375 6.0625 26.5625 6.0625 
Q 32.328125 6.0625 36.34375 10.765625 
Q 40.375 15.484375 40.375 25.140625 
Q 40.375 35.796875 36.265625 40.765625 
Q 32.171875 45.75 26.171875 45.75 
Q 20.3125 45.75 16.375 40.96875 
Q 12.453125 36.1875 12.453125 25.875 
z
" id="ArialMT-100"/>
       <path d="M 0.734375 0 
L 19.671875 26.953125 
L 2.15625 51.859375 
L 13.140625 51.859375 
L 21.09375 39.703125 
Q 23.34375 36.234375 24.703125 33.890625 
Q 26.859375 37.109375 28.65625 39.59375 
L 37.40625 51.859375 
L 47.90625 51.859375 
L 29.984375 27.4375 
L 49.265625 0 
L 38.484375 0 
L 27.828125 16.109375 
L 25 20.453125 
L 11.375 0 
z
" id="ArialMT-120"/>
      </defs>
      <use xlink:href="#ArialMT-72"/>
      <use x="72.216797" xlink:href="#ArialMT-117"/>
      <use x="127.832031" xlink:href="#ArialMT-109"/>
      <use x="211.132812" xlink:href="#ArialMT-97"/>
      <use x="266.748047" xlink:href="#ArialMT-110"/>
      <use x="322.363281" xlink:href="#ArialMT-32"/>
      <use x="350.146484" xlink:href="#ArialMT-68"/>
      <use x="422.363281" xlink:href="#ArialMT-101"/>
      <use x="477.978516" xlink:href="#ArialMT-118"/>
      <use x="527.978516" xlink:href="#ArialMT-101"/>
      <use x="583.59375" xlink:href="#ArialMT-108"/>
      <use x="605.810547" xlink:href="#ArialMT-111"/>
      <use x="661.425781" xlink:href="#ArialMT-112"/>
      <use x="717.041016" xlink:href="#ArialMT-109"/>
      <use x="800.341797" xlink:href="#ArialMT-101"/>
      <use x="855.957031" xlink:href="#ArialMT-110"/>
      <use x="911.572266" xlink:href="#ArialMT-116"/>
      <use x="939.355469" xlink:href="#ArialMT-32"/>
      <use x="967.138672" xlink:href="#ArialMT-73"/>
      <use x="994.921875" xlink:href="#ArialMT-110"/>
      <use x="1050.537109" xlink:href="#ArialMT-100"/>
      <use x="1106.152344" xlink:href="#ArialMT-101"/>
      <use x="1161.767578" xlink:href="#ArialMT-120"/>
     </g>
    </g>
   </g>
   <g id="matplotlib.axis_2">
    <g id="ytick_1">
     <g id="line2d_11">
      <path clip-path="url(#p12accb8ef5)" d="M 144 454.688305 
L 1036.8 454.688305 
" style="fill:none;stroke:#ffffff;stroke-linecap:round;"/>
     </g>
     <g id="line2d_12"/>
     <g id="text_7">
      <!-- 0 -->
      <g style="fill:#262626;" transform="translate(131.439063 458.267211)scale(0.1 -0.1)">
       <use xlink:href="#ArialMT-48"/>
      </g>
     </g>
    </g>
    <g id="ytick_2">
     <g id="line2d_13">
      <path clip-path="url(#p12accb8ef5)" d="M 144 375.789593 
L 1036.8 375.789593 
" style="fill:none;stroke:#ffffff;stroke-linecap:round;"/>
     </g>
     <g id="line2d_14"/>
     <g id="text_8">
      <!-- 2 -->
      <g style="fill:#262626;" transform="translate(131.439063 379.3685)scale(0.1 -0.1)">
       <defs>
        <path d="M 50.34375 8.453125 
L 50.34375 0 
L 3.03125 0 
Q 2.9375 3.171875 4.046875 6.109375 
Q 5.859375 10.9375 9.828125 15.625 
Q 13.8125 20.3125 21.34375 26.46875 
Q 33.015625 36.03125 37.109375 41.625 
Q 41.21875 47.21875 41.21875 52.203125 
Q 41.21875 57.421875 37.46875 61 
Q 33.734375 64.59375 27.734375 64.59375 
Q 21.390625 64.59375 17.578125 60.78125 
Q 13.765625 56.984375 13.71875 50.25 
L 4.6875 51.171875 
Q 5.609375 61.28125 11.65625 66.578125 
Q 17.71875 71.875 27.9375 71.875 
Q 38.234375 71.875 44.234375 66.15625 
Q 50.25 60.453125 50.25 52 
Q 50.25 47.703125 48.484375 43.546875 
Q 46.734375 39.40625 42.65625 34.8125 
Q 38.578125 30.21875 29.109375 22.21875 
Q 21.1875 15.578125 18.9375 13.203125 
Q 16.703125 10.84375 15.234375 8.453125 
z
" id="ArialMT-50"/>
       </defs>
       <use xlink:href="#ArialMT-50"/>
      </g>
     </g>
    </g>
    <g id="ytick_3">
     <g id="line2d_15">
      <path clip-path="url(#p12accb8ef5)" d="M 144 296.890882 
L 1036.8 296.890882 
" style="fill:none;stroke:#ffffff;stroke-linecap:round;"/>
     </g>
     <g id="line2d_16"/>
     <g id="text_9">
      <!-- 4 -->
      <g style="fill:#262626;" transform="translate(131.439063 300.469788)scale(0.1 -0.1)">
       <defs>
        <path d="M 32.328125 0 
L 32.328125 17.140625 
L 1.265625 17.140625 
L 1.265625 25.203125 
L 33.9375 71.578125 
L 41.109375 71.578125 
L 41.109375 25.203125 
L 50.78125 25.203125 
L 50.78125 17.140625 
L 41.109375 17.140625 
L 41.109375 0 
z
M 32.328125 25.203125 
L 32.328125 57.46875 
L 9.90625 25.203125 
z
" id="ArialMT-52"/>
       </defs>
       <use xlink:href="#ArialMT-52"/>
      </g>
     </g>
    </g>
    <g id="ytick_4">
     <g id="line2d_17">
      <path clip-path="url(#p12accb8ef5)" d="M 144 217.99217 
L 1036.8 217.99217 
" style="fill:none;stroke:#ffffff;stroke-linecap:round;"/>
     </g>
     <g id="line2d_18"/>
     <g id="text_10">
      <!-- 6 -->
      <g style="fill:#262626;" transform="translate(131.439063 221.571076)scale(0.1 -0.1)">
       <use xlink:href="#ArialMT-54"/>
      </g>
     </g>
    </g>
    <g id="ytick_5">
     <g id="line2d_19">
      <path clip-path="url(#p12accb8ef5)" d="M 144 139.093458 
L 1036.8 139.093458 
" style="fill:none;stroke:#ffffff;stroke-linecap:round;"/>
     </g>
     <g id="line2d_20"/>
     <g id="text_11">
      <!-- 8 -->
      <g style="fill:#262626;" transform="translate(131.439063 142.672364)scale(0.1 -0.1)">
       <use xlink:href="#ArialMT-56"/>
      </g>
     </g>
    </g>
    <g id="text_12">
     <!-- Confirmed Cases (as % of Total Population) -->
     <g style="fill:#262626;" transform="translate(125.123906 393.143984)rotate(-90)scale(0.11 -0.11)">
      <defs>
       <path d="M 58.796875 25.09375 
L 68.265625 22.703125 
Q 65.28125 11.03125 57.546875 4.90625 
Q 49.8125 -1.21875 38.625 -1.21875 
Q 27.046875 -1.21875 19.796875 3.484375 
Q 12.546875 8.203125 8.765625 17.140625 
Q 4.984375 26.078125 4.984375 36.328125 
Q 4.984375 47.515625 9.25 55.828125 
Q 13.53125 64.15625 21.40625 68.46875 
Q 29.296875 72.796875 38.765625 72.796875 
Q 49.515625 72.796875 56.828125 67.328125 
Q 64.15625 61.859375 67.046875 51.953125 
L 57.71875 49.75 
Q 55.21875 57.5625 50.484375 61.125 
Q 45.75 64.703125 38.578125 64.703125 
Q 30.328125 64.703125 24.78125 60.734375 
Q 19.234375 56.78125 16.984375 50.109375 
Q 14.75 43.453125 14.75 36.375 
Q 14.75 27.25 17.40625 20.4375 
Q 20.0625 13.625 25.671875 10.25 
Q 31.296875 6.890625 37.84375 6.890625 
Q 45.796875 6.890625 51.3125 11.46875 
Q 56.84375 16.0625 58.796875 25.09375 
z
" id="ArialMT-67"/>
       <path d="M 8.6875 0 
L 8.6875 45.015625 
L 0.921875 45.015625 
L 0.921875 51.859375 
L 8.6875 51.859375 
L 8.6875 57.375 
Q 8.6875 62.59375 9.625 65.140625 
Q 10.890625 68.5625 14.078125 70.671875 
Q 17.28125 72.796875 23.046875 72.796875 
Q 26.765625 72.796875 31.25 71.921875 
L 29.9375 64.265625 
Q 27.203125 64.75 24.75 64.75 
Q 20.75 64.75 19.09375 63.03125 
Q 17.4375 61.328125 17.4375 56.640625 
L 17.4375 51.859375 
L 27.546875 51.859375 
L 27.546875 45.015625 
L 17.4375 45.015625 
L 17.4375 0 
z
" id="ArialMT-102"/>
       <path d="M 6.640625 61.46875 
L 6.640625 71.578125 
L 15.4375 71.578125 
L 15.4375 61.46875 
z
M 6.640625 0 
L 6.640625 51.859375 
L 15.4375 51.859375 
L 15.4375 0 
z
" id="ArialMT-105"/>
       <path d="M 6.5 0 
L 6.5 51.859375 
L 14.40625 51.859375 
L 14.40625 44 
Q 17.4375 49.515625 20 51.265625 
Q 22.5625 53.03125 25.640625 53.03125 
Q 30.078125 53.03125 34.671875 50.203125 
L 31.640625 42.046875 
Q 28.421875 43.953125 25.203125 43.953125 
Q 22.3125 43.953125 20.015625 42.21875 
Q 17.71875 40.484375 16.75 37.40625 
Q 15.28125 32.71875 15.28125 27.15625 
L 15.28125 0 
z
" id="ArialMT-114"/>
       <path d="M 3.078125 15.484375 
L 11.765625 16.84375 
Q 12.5 11.625 15.84375 8.84375 
Q 19.1875 6.0625 25.203125 6.0625 
Q 31.25 6.0625 34.171875 8.515625 
Q 37.109375 10.984375 37.109375 14.3125 
Q 37.109375 17.28125 34.515625 19 
Q 32.71875 20.171875 25.53125 21.96875 
Q 15.875 24.421875 12.140625 26.203125 
Q 8.40625 27.984375 6.46875 31.125 
Q 4.546875 34.28125 4.546875 38.09375 
Q 4.546875 41.546875 6.125 44.5 
Q 7.71875 47.46875 10.453125 49.421875 
Q 12.5 50.921875 16.03125 51.96875 
Q 19.578125 53.03125 23.640625 53.03125 
Q 29.734375 53.03125 34.34375 51.265625 
Q 38.96875 49.515625 41.15625 46.5 
Q 43.359375 43.5 44.1875 38.484375 
L 35.59375 37.3125 
Q 35.015625 41.3125 32.203125 43.546875 
Q 29.390625 45.796875 24.265625 45.796875 
Q 18.21875 45.796875 15.625 43.796875 
Q 13.03125 41.796875 13.03125 39.109375 
Q 13.03125 37.40625 14.109375 36.03125 
Q 15.1875 34.625 17.484375 33.6875 
Q 18.796875 33.203125 25.25 31.453125 
Q 34.578125 28.953125 38.25 27.359375 
Q 41.9375 25.78125 44.03125 22.75 
Q 46.140625 19.734375 46.140625 15.234375 
Q 46.140625 10.84375 43.578125 6.953125 
Q 41.015625 3.078125 36.171875 0.953125 
Q 31.34375 -1.171875 25.25 -1.171875 
Q 15.140625 -1.171875 9.84375 3.03125 
Q 4.546875 7.234375 3.078125 15.484375 
z
" id="ArialMT-115"/>
       <path d="M 23.390625 -21.046875 
Q 16.109375 -11.859375 11.078125 0.4375 
Q 6.0625 12.75 6.0625 25.921875 
Q 6.0625 37.546875 9.8125 48.1875 
Q 14.203125 60.546875 23.390625 72.796875 
L 29.6875 72.796875 
Q 23.78125 62.640625 21.875 58.296875 
Q 18.890625 51.5625 17.1875 44.234375 
Q 15.09375 35.109375 15.09375 25.875 
Q 15.09375 2.390625 29.6875 -21.046875 
z
" id="ArialMT-40"/>
       <path d="M 5.8125 54.390625 
Q 5.8125 62.0625 9.671875 67.421875 
Q 13.53125 72.796875 20.84375 72.796875 
Q 27.59375 72.796875 32 67.984375 
Q 36.421875 63.1875 36.421875 53.859375 
Q 36.421875 44.78125 31.953125 39.875 
Q 27.484375 34.96875 20.953125 34.96875 
Q 14.453125 34.96875 10.125 39.796875 
Q 5.8125 44.625 5.8125 54.390625 
z
M 21.09375 66.75 
Q 17.828125 66.75 15.65625 63.90625 
Q 13.484375 61.078125 13.484375 53.515625 
Q 13.484375 46.625 15.671875 43.8125 
Q 17.875 41.015625 21.09375 41.015625 
Q 24.421875 41.015625 26.59375 43.84375 
Q 28.765625 46.6875 28.765625 54.203125 
Q 28.765625 61.140625 26.5625 63.9375 
Q 24.359375 66.75 21.09375 66.75 
z
M 21.140625 -2.640625 
L 60.296875 72.796875 
L 67.4375 72.796875 
L 28.421875 -2.640625 
z
M 52.09375 16.796875 
Q 52.09375 24.515625 55.953125 29.859375 
Q 59.8125 35.203125 67.1875 35.203125 
Q 73.921875 35.203125 78.34375 30.390625 
Q 82.765625 25.59375 82.765625 16.265625 
Q 82.765625 7.171875 78.296875 2.265625 
Q 73.828125 -2.640625 67.234375 -2.640625 
Q 60.75 -2.640625 56.421875 2.21875 
Q 52.09375 7.078125 52.09375 16.796875 
z
M 67.4375 29.15625 
Q 64.109375 29.15625 61.9375 26.3125 
Q 59.765625 23.484375 59.765625 15.921875 
Q 59.765625 9.078125 61.953125 6.25 
Q 64.15625 3.421875 67.390625 3.421875 
Q 70.75 3.421875 72.921875 6.25 
Q 75.09375 9.078125 75.09375 16.609375 
Q 75.09375 23.53125 72.890625 26.34375 
Q 70.703125 29.15625 67.4375 29.15625 
z
" id="ArialMT-37"/>
       <path d="M 25.921875 0 
L 25.921875 63.140625 
L 2.34375 63.140625 
L 2.34375 71.578125 
L 59.078125 71.578125 
L 59.078125 63.140625 
L 35.40625 63.140625 
L 35.40625 0 
z
" id="ArialMT-84"/>
       <path d="M 7.71875 0 
L 7.71875 71.578125 
L 34.71875 71.578125 
Q 41.84375 71.578125 45.609375 70.90625 
Q 50.875 70.015625 54.4375 67.546875 
Q 58.015625 65.09375 60.1875 60.640625 
Q 62.359375 56.203125 62.359375 50.875 
Q 62.359375 41.75 56.546875 35.421875 
Q 50.734375 29.109375 35.546875 29.109375 
L 17.1875 29.109375 
L 17.1875 0 
z
M 17.1875 37.546875 
L 35.6875 37.546875 
Q 44.875 37.546875 48.734375 40.96875 
Q 52.59375 44.390625 52.59375 50.59375 
Q 52.59375 55.078125 50.3125 58.265625 
Q 48.046875 61.46875 44.34375 62.5 
Q 41.9375 63.140625 35.5 63.140625 
L 17.1875 63.140625 
z
" id="ArialMT-80"/>
       <path d="M 12.359375 -21.046875 
L 6.0625 -21.046875 
Q 20.65625 2.390625 20.65625 25.875 
Q 20.65625 35.0625 18.5625 44.09375 
Q 16.890625 51.421875 13.921875 58.15625 
Q 12.015625 62.546875 6.0625 72.796875 
L 12.359375 72.796875 
Q 21.53125 60.546875 25.921875 48.1875 
Q 29.6875 37.546875 29.6875 25.921875 
Q 29.6875 12.75 24.625 0.4375 
Q 19.578125 -11.859375 12.359375 -21.046875 
z
" id="ArialMT-41"/>
      </defs>
      <use xlink:href="#ArialMT-67"/>
      <use x="72.216797" xlink:href="#ArialMT-111"/>
      <use x="127.832031" xlink:href="#ArialMT-110"/>
      <use x="183.447266" xlink:href="#ArialMT-102"/>
      <use x="211.230469" xlink:href="#ArialMT-105"/>
      <use x="233.447266" xlink:href="#ArialMT-114"/>
      <use x="266.748047" xlink:href="#ArialMT-109"/>
      <use x="350.048828" xlink:href="#ArialMT-101"/>
      <use x="405.664062" xlink:href="#ArialMT-100"/>
      <use x="461.279297" xlink:href="#ArialMT-32"/>
      <use x="489.0625" xlink:href="#ArialMT-67"/>
      <use x="561.279297" xlink:href="#ArialMT-97"/>
      <use x="616.894531" xlink:href="#ArialMT-115"/>
      <use x="666.894531" xlink:href="#ArialMT-101"/>
      <use x="722.509766" xlink:href="#ArialMT-115"/>
      <use x="772.509766" xlink:href="#ArialMT-32"/>
      <use x="800.292969" xlink:href="#ArialMT-40"/>
      <use x="833.59375" xlink:href="#ArialMT-97"/>
      <use x="889.208984" xlink:href="#ArialMT-115"/>
      <use x="939.208984" xlink:href="#ArialMT-32"/>
      <use x="966.992188" xlink:href="#ArialMT-37"/>
      <use x="1055.908203" xlink:href="#ArialMT-32"/>
      <use x="1083.691406" xlink:href="#ArialMT-111"/>
      <use x="1139.306641" xlink:href="#ArialMT-102"/>
      <use x="1167.089844" xlink:href="#ArialMT-32"/>
      <use x="1193.123047" xlink:href="#ArialMT-84"/>
      <use x="1243.082031" xlink:href="#ArialMT-111"/>
      <use x="1298.697266" xlink:href="#ArialMT-116"/>
      <use x="1326.480469" xlink:href="#ArialMT-97"/>
      <use x="1382.095703" xlink:href="#ArialMT-108"/>
      <use x="1404.3125" xlink:href="#ArialMT-32"/>
      <use x="1432.095703" xlink:href="#ArialMT-80"/>
      <use x="1498.794922" xlink:href="#ArialMT-111"/>
      <use x="1554.410156" xlink:href="#ArialMT-112"/>
      <use x="1610.025391" xlink:href="#ArialMT-117"/>
      <use x="1665.640625" xlink:href="#ArialMT-108"/>
      <use x="1687.857422" xlink:href="#ArialMT-97"/>
      <use x="1743.472656" xlink:href="#ArialMT-116"/>
      <use x="1771.255859" xlink:href="#ArialMT-105"/>
      <use x="1793.472656" xlink:href="#ArialMT-111"/>
      <use x="1849.087891" xlink:href="#ArialMT-110"/>
      <use x="1904.703125" xlink:href="#ArialMT-41"/>
     </g>
    </g>
   </g>
   <g id="PathCollection_1">
    <path clip-path="url(#p12accb8ef5)" d="M 996.218182 351.405938 
C 996.497613 351.405938 996.765636 351.294919 996.963224 351.097332 
C 997.160811 350.899745 997.27183 350.631721 997.27183 350.35229 
C 997.27183 350.072859 997.160811 349.804836 996.963224 349.607248 
C 996.765636 349.409661 996.497613 349.298642 996.218182 349.298642 
C 995.938751 349.298642 995.670727 349.409661 995.47314 349.607248 
C 995.275552 349.804836 995.164533 350.072859 995.164533 350.35229 
C 995.164533 350.631721 995.275552 350.899745 995.47314 351.097332 
C 995.670727 351.294919 995.938751 351.405938 996.218182 351.405938 
z
" style="fill:#4c72b0;stroke:#4c72b0;stroke-width:0.3;"/>
    <path clip-path="url(#p12accb8ef5)" d="M 990.406943 93.007011 
C 991.23683 93.007011 992.032838 92.677294 992.619656 92.090475 
C 993.206475 91.503657 993.536192 90.707649 993.536192 89.877762 
C 993.536192 89.047875 993.206475 88.251867 992.619656 87.665049 
C 992.032838 87.07823 991.23683 86.748513 990.406943 86.748513 
C 989.577056 86.748513 988.781048 87.07823 988.19423 87.665049 
C 987.607411 88.251867 987.277694 89.047875 987.277694 89.877762 
C 987.277694 90.707649 987.607411 91.503657 988.19423 92.090475 
C 988.781048 92.677294 989.577056 93.007011 990.406943 93.007011 
z
" style="fill:#4c72b0;stroke:#4c72b0;stroke-width:0.3;"/>
    <path clip-path="url(#p12accb8ef5)" d="M 775.391104 133.233121 
C 776.423749 133.233121 777.414238 132.822847 778.144427 132.092657 
C 778.874617 131.362467 779.284891 130.371978 779.284891 129.339334 
C 779.284891 128.30669 778.874617 127.316201 778.144427 126.586011 
C 777.414238 125.855821 776.423749 125.445547 775.391104 125.445547 
C 774.35846 125.445547 773.367971 125.855821 772.637781 126.586011 
C 771.907592 127.316201 771.497318 128.30669 771.497318 129.339334 
C 771.497318 130.371978 771.907592 131.362467 772.637781 132.092657 
C 773.367971 132.822847 774.35846 133.233121 775.391104 133.233121 
z
" style="fill:#4c72b0;stroke:#4c72b0;stroke-width:0.3;"/>
    <path clip-path="url(#p12accb8ef5)" d="M 773.454025 365.983532 
C 774.328056 365.983532 775.166407 365.636276 775.78444 365.018242 
C 776.402474 364.400209 776.74973 363.561858 776.74973 362.687826 
C 776.74973 361.813795 776.402474 360.975444 775.78444 360.357411 
C 775.166407 359.739377 774.328056 359.392121 773.454025 359.392121 
C 772.579993 359.392121 771.741642 359.739377 771.123609 360.357411 
C 770.505576 360.975444 770.158319 361.813795 770.158319 362.687826 
C 770.158319 363.561858 770.505576 364.400209 771.123609 365.018242 
C 771.741642 365.636276 772.579993 365.983532 773.454025 365.983532 
z
" style="fill:#4c72b0;stroke:#4c72b0;stroke-width:0.3;"/>
    <path clip-path="url(#p12accb8ef5)" d="M 773.454025 417.894045 
C 777.038952 417.894045 780.477532 416.469738 783.012459 413.934812 
C 785.547385 411.399885 786.971692 407.961305 786.971692 404.376378 
C 786.971692 400.79145 785.547385 397.35287 783.012459 394.817943 
C 780.477532 392.283017 777.038952 390.85871 773.454025 390.85871 
C 769.869098 390.85871 766.430517 392.283017 763.895591 394.817943 
C 761.360664 397.35287 759.936358 400.79145 759.936358 404.376378 
C 759.936358 407.961305 761.360664 411.399885 763.895591 413.934812 
C 766.430517 416.469738 769.869098 417.894045 773.454025 417.894045 
z
" style="fill:#4c72b0;stroke:#4c72b0;stroke-width:0.3;"/>
    <path clip-path="url(#p12accb8ef5)" d="M 765.705706 291.964185 
C 767.068905 291.964185 768.376454 291.42258 769.340381 290.458653 
C 770.304308 289.494726 770.845913 288.187177 770.845913 286.823978 
C 770.845913 285.460779 770.304308 284.15323 769.340381 283.189303 
C 768.376454 282.225376 767.068905 281.683772 765.705706 281.683772 
C 764.342507 281.683772 763.034958 282.225376 762.071031 283.189303 
C 761.107104 284.15323 760.5655 285.460779 760.5655 286.823978 
C 760.5655 288.187177 761.107104 289.494726 762.071031 290.458653 
C 763.034958 291.42258 764.342507 291.964185 765.705706 291.964185 
z
" style="fill:#4c72b0;stroke:#4c72b0;stroke-width:0.3;"/>
    <path clip-path="url(#p12accb8ef5)" d="M 738.586591 440.377642 
C 740.858589 440.377642 743.037837 439.474968 744.644382 437.868423 
C 746.250927 436.261878 747.153601 434.08263 747.153601 431.810632 
C 747.153601 429.538635 746.250927 427.359387 744.644382 425.752842 
C 743.037837 424.146297 740.858589 423.243623 738.586591 423.243623 
C 736.314594 423.243623 734.135346 424.146297 732.528801 425.752842 
C 730.922256 427.359387 730.019582 429.538635 730.019582 431.810632 
C 730.019582 434.08263 730.922256 436.261878 732.528801 437.868423 
C 734.135346 439.474968 736.314594 440.377642 738.586591 440.377642 
z
" style="fill:#4c72b0;stroke:#4c72b0;stroke-width:0.3;"/>
    <path clip-path="url(#p12accb8ef5)" d="M 713.404556 433.257298 
C 714.865876 433.257298 716.26754 432.676709 717.300849 431.6434 
C 718.334158 430.610091 718.914747 429.208427 718.914747 427.747107 
C 718.914747 426.285788 718.334158 424.884123 717.300849 423.850814 
C 716.26754 422.817505 714.865876 422.236917 713.404556 422.236917 
C 711.943237 422.236917 710.541572 422.817505 709.508263 423.850814 
C 708.474954 424.884123 707.894366 426.285788 707.894366 427.747107 
C 707.894366 429.208427 708.474954 430.610091 709.508263 431.6434 
C 710.541572 432.676709 711.943237 433.257298 713.404556 433.257298 
z
" style="fill:#4c72b0;stroke:#4c72b0;stroke-width:0.3;"/>
    <path clip-path="url(#p12accb8ef5)" d="M 705.656238 459.076091 
C 707.685308 459.076091 709.631546 458.269932 711.066315 456.835163 
C 712.501084 455.400394 713.307243 453.454156 713.307243 451.425086 
C 713.307243 449.396016 712.501084 447.449778 711.066315 446.015008 
C 709.631546 444.580239 707.685308 443.774081 705.656238 443.774081 
C 703.627168 443.774081 701.68093 444.580239 700.24616 446.015008 
C 698.811391 447.449778 698.005233 449.396016 698.005233 451.425086 
C 698.005233 453.454156 698.811391 455.400394 700.24616 456.835163 
C 701.68093 458.269932 703.627168 459.076091 705.656238 459.076091 
z
" style="fill:#4c72b0;stroke:#4c72b0;stroke-width:0.3;"/>
    <path clip-path="url(#p12accb8ef5)" d="M 705.656238 390.200857 
C 706.789872 390.200857 707.877228 389.750459 708.678828 388.948859 
C 709.480428 388.147259 709.930825 387.059903 709.930825 385.926269 
C 709.930825 384.792635 709.480428 383.705279 708.678828 382.903679 
C 707.877228 382.102079 706.789872 381.651681 705.656238 381.651681 
C 704.522604 381.651681 703.435248 382.102079 702.633648 382.903679 
C 701.832048 383.705279 701.38165 384.792635 701.38165 385.926269 
C 701.38165 387.059903 701.832048 388.147259 702.633648 388.948859 
C 703.435248 389.750459 704.522604 390.200857 705.656238 390.200857 
z
" style="fill:#4c72b0;stroke:#4c72b0;stroke-width:0.3;"/>
    <path clip-path="url(#p12accb8ef5)" d="M 705.656238 458.592677 
C 708.13289 458.592677 710.508438 457.608693 712.259695 455.857436 
C 714.010953 454.106178 714.994937 451.73063 714.994937 449.253978 
C 714.994937 446.777326 714.010953 444.401778 712.259695 442.650521 
C 710.508438 440.899264 708.13289 439.915279 705.656238 439.915279 
C 703.179586 439.915279 700.804038 440.899264 699.05278 442.650521 
C 697.301523 444.401778 696.317539 446.777326 696.317539 449.253978 
C 696.317539 451.73063 697.301523 454.106178 699.05278 455.857436 
C 700.804038 457.608693 703.179586 458.592677 705.656238 458.592677 
z
" style="fill:#4c72b0;stroke:#4c72b0;stroke-width:0.3;"/>
    <path clip-path="url(#p12accb8ef5)" d="M 703.719158 416.265911 
C 705.836758 416.265911 707.867911 415.42458 709.36528 413.927211 
C 710.862649 412.429842 711.70398 410.398689 711.70398 408.28109 
C 711.70398 406.16349 710.862649 404.132337 709.36528 402.634968 
C 707.867911 401.137599 705.836758 400.296268 703.719158 400.296268 
C 701.601559 400.296268 699.570406 401.137599 698.073037 402.634968 
C 696.575668 404.132337 695.734337 406.16349 695.734337 408.28109 
C 695.734337 410.398689 696.575668 412.429842 698.073037 413.927211 
C 699.570406 415.42458 701.601559 416.265911 703.719158 416.265911 
z
" style="fill:#4c72b0;stroke:#4c72b0;stroke-width:0.3;"/>
    <path clip-path="url(#p12accb8ef5)" d="M 666.914645 372.041747 
C 669.295963 372.041747 671.580068 371.09564 673.263914 369.411794 
C 674.94776 367.727948 675.893867 365.443843 675.893867 363.062526 
C 675.893867 360.681208 674.94776 358.397103 673.263914 356.713257 
C 671.580068 355.029411 669.295963 354.083304 666.914645 354.083304 
C 664.533328 354.083304 662.249222 355.029411 660.565377 356.713257 
C 658.881531 358.397103 657.935423 360.681208 657.935423 363.062526 
C 657.935423 365.443843 658.881531 367.727948 660.565377 369.411794 
C 662.249222 371.09564 664.533328 372.041747 666.914645 372.041747 
z
" style="fill:#4c72b0;stroke:#4c72b0;stroke-width:0.3;"/>
    <path clip-path="url(#p12accb8ef5)" d="M 661.103406 370.227413 
C 663.179628 370.227413 665.171092 369.402521 666.639202 367.934411 
C 668.107313 366.466301 668.932204 364.474836 668.932204 362.398615 
C 668.932204 360.322394 668.107313 358.330929 666.639202 356.862819 
C 665.171092 355.394709 663.179628 354.569817 661.103406 354.569817 
C 659.027185 354.569817 657.035721 355.394709 655.56761 356.862819 
C 654.0995 358.330929 653.274609 360.322394 653.274609 362.398615 
C 653.274609 364.474836 654.0995 366.466301 655.56761 367.934411 
C 657.035721 369.402521 659.027185 370.227413 661.103406 370.227413 
z
" style="fill:#4c72b0;stroke:#4c72b0;stroke-width:0.3;"/>
    <path clip-path="url(#p12accb8ef5)" d="M 633.984292 450.853033 
C 635.365028 450.853033 636.689399 450.30446 637.665726 449.328132 
C 638.642054 448.351804 639.190627 447.027434 639.190627 445.646698 
C 639.190627 444.265961 638.642054 442.941591 637.665726 441.965263 
C 636.689399 440.988935 635.365028 440.440362 633.984292 440.440362 
C 632.603555 440.440362 631.279185 440.988935 630.302857 441.965263 
C 629.326529 442.941591 628.777957 444.265961 628.777957 445.646698 
C 628.777957 447.027434 629.326529 448.351804 630.302857 449.328132 
C 631.279185 450.30446 632.603555 450.853033 633.984292 450.853033 
z
" style="fill:#4c72b0;stroke:#4c72b0;stroke-width:0.3;"/>
    <path clip-path="url(#p12accb8ef5)" d="M 626.235973 401.124357 
C 628.570535 401.124357 630.809794 400.196826 632.460579 398.546041 
C 634.111363 396.895257 635.038894 394.655998 635.038894 392.321436 
C 635.038894 389.986874 634.111363 387.747615 632.460579 386.096831 
C 630.809794 384.446046 628.570535 383.518515 626.235973 383.518515 
C 623.901411 383.518515 621.662152 384.446046 620.011368 386.096831 
C 618.360583 387.747615 617.433052 389.986874 617.433052 392.321436 
C 617.433052 394.655998 618.360583 396.895257 620.011368 398.546041 
C 621.662152 400.196826 623.901411 401.124357 626.235973 401.124357 
z
" style="fill:#4c72b0;stroke:#4c72b0;stroke-width:0.3;"/>
    <path clip-path="url(#p12accb8ef5)" d="M 618.487655 410.010127 
C 620.759622 410.010127 622.938842 409.107464 624.545366 407.500941 
C 626.151889 405.894417 627.054552 403.715197 627.054552 401.44323 
C 627.054552 399.171262 626.151889 396.992043 624.545366 395.385519 
C 622.938842 393.778995 620.759622 392.876333 618.487655 392.876333 
C 616.215687 392.876333 614.036467 393.778995 612.429944 395.385519 
C 610.82342 396.992043 609.920758 399.171262 609.920758 401.44323 
C 609.920758 403.715197 610.82342 405.894417 612.429944 407.500941 
C 614.036467 409.107464 616.215687 410.010127 618.487655 410.010127 
z
" style="fill:#4c72b0;stroke:#4c72b0;stroke-width:0.3;"/>
    <path clip-path="url(#p12accb8ef5)" d="M 583.620221 333.233376 
C 584.183873 333.233376 584.724515 333.009435 585.123077 332.610873 
C 585.521639 332.212311 585.74558 331.671669 585.74558 331.108017 
C 585.74558 330.544365 585.521639 330.003724 585.123077 329.605162 
C 584.724515 329.2066 584.183873 328.982658 583.620221 328.982658 
C 583.05657 328.982658 582.515928 329.2066 582.117366 329.605162 
C 581.718804 330.003724 581.494863 330.544365 581.494863 331.108017 
C 581.494863 331.671669 581.718804 332.212311 582.117366 332.610873 
C 582.515928 333.009435 583.05657 333.233376 583.620221 333.233376 
z
" style="fill:#4c72b0;stroke:#4c72b0;stroke-width:0.3;"/>
    <path clip-path="url(#p12accb8ef5)" d="M 500.325797 424.701528 
C 502.765782 424.701528 505.106159 423.732112 506.831488 422.006782 
C 508.556817 420.281453 509.526233 417.941076 509.526233 415.501091 
C 509.526233 413.061107 508.556817 410.72073 506.831488 408.995401 
C 505.106159 407.270071 502.765782 406.300655 500.325797 406.300655 
C 497.885813 406.300655 495.545436 407.270071 493.820107 408.995401 
C 492.094777 410.72073 491.125361 413.061107 491.125361 415.501091 
C 491.125361 417.941076 492.094777 420.281453 493.820107 422.006782 
C 495.545436 423.732112 497.885813 424.701528 500.325797 424.701528 
z
" style="fill:#4c72b0;stroke:#4c72b0;stroke-width:0.3;"/>
    <path clip-path="url(#p12accb8ef5)" d="M 480.955001 418.330362 
C 482.702212 418.330362 484.378096 417.636188 485.61356 416.400724 
C 486.849025 415.16526 487.543199 413.489375 487.543199 411.742165 
C 487.543199 409.994954 486.849025 408.31907 485.61356 407.083605 
C 484.378096 405.848141 482.702212 405.153967 480.955001 405.153967 
C 479.207791 405.153967 477.531906 405.848141 476.296442 407.083605 
C 475.060977 408.31907 474.366803 409.994954 474.366803 411.742165 
C 474.366803 413.489375 475.060977 415.16526 476.296442 416.400724 
C 477.531906 417.636188 479.207791 418.330362 480.955001 418.330362 
z
" style="fill:#4c72b0;stroke:#4c72b0;stroke-width:0.3;"/>
    <path clip-path="url(#p12accb8ef5)" d="M 475.143762 454.481544 
C 476.14342 454.481544 477.10227 454.084376 477.809135 453.377511 
C 478.516 452.670646 478.913169 451.711796 478.913169 450.712138 
C 478.913169 449.71248 478.516 448.75363 477.809135 448.046765 
C 477.10227 447.3399 476.14342 446.942731 475.143762 446.942731 
C 474.144104 446.942731 473.185254 447.3399 472.478389 448.046765 
C 471.771524 448.75363 471.374356 449.71248 471.374356 450.712138 
C 471.374356 451.711796 471.771524 452.670646 472.478389 453.377511 
C 473.185254 454.084376 474.144104 454.481544 475.143762 454.481544 
z
" style="fill:#4c72b0;stroke:#4c72b0;stroke-width:0.3;"/>
    <path clip-path="url(#p12accb8ef5)" d="M 424.779692 383.893712 
C 426.045224 383.893712 427.259094 383.390911 428.15396 382.496044 
C 429.048827 381.601178 429.551628 380.387308 429.551628 379.121776 
C 429.551628 377.856244 429.048827 376.642374 428.15396 375.747508 
C 427.259094 374.852641 426.045224 374.34984 424.779692 374.34984 
C 423.51416 374.34984 422.30029 374.852641 421.405423 375.747508 
C 420.510557 376.642374 420.007756 377.856244 420.007756 379.121776 
C 420.007756 380.387308 420.510557 381.601178 421.405423 382.496044 
C 422.30029 383.390911 423.51416 383.893712 424.779692 383.893712 
z
" style="fill:#4c72b0;stroke:#4c72b0;stroke-width:0.3;"/>
    <path clip-path="url(#p12accb8ef5)" d="M 184.581818 460.731761 
C 187.35789 460.731761 190.020636 459.628816 191.983615 457.665836 
C 193.946595 455.702857 195.04954 453.040112 195.04954 450.264039 
C 195.04954 447.487967 193.946595 444.825222 191.983615 442.862242 
C 190.020636 440.899263 187.35789 439.796318 184.581818 439.796318 
C 181.805746 439.796318 179.143001 440.899263 177.180021 442.862242 
C 175.217042 444.825222 174.114096 447.487967 174.114096 450.264039 
C 174.114096 453.040112 175.217042 455.702857 177.180021 457.665836 
C 179.143001 459.628816 181.805746 460.731761 184.581818 460.731761 
z
" style="fill:#4c72b0;stroke:#4c72b0;stroke-width:0.3;"/>
   </g>
   <g id="line2d_21">
    <path clip-path="url(#p12accb8ef5)" d="M 996.218182 280.272456 
L 990.406943 281.88172 
L 775.391104 341.42449 
L 773.454025 341.960911 
L 773.454025 341.960911 
L 765.705706 344.106597 
L 738.586591 351.616495 
L 713.404556 358.589973 
L 705.656238 360.735658 
L 705.656238 360.735658 
L 705.656238 360.735658 
L 703.719158 361.27208 
L 666.914645 371.464085 
L 661.103406 373.07335 
L 633.984292 380.583248 
L 626.235973 382.728934 
L 618.487655 384.874619 
L 583.620221 394.530204 
L 500.325797 417.596322 
L 480.955001 422.960535 
L 475.143762 424.569799 
L 424.779692 438.516755 
L 184.581818 505.033002 
" style="fill:none;stroke:#8b0000;stroke-linecap:round;stroke-width:1.75;"/>
   </g>
   <g id="patch_3">
    <path d="M 144 504 
L 144 69.12 
" style="fill:none;"/>
   </g>
   <g id="patch_4">
    <path d="M 1036.8 504 
L 1036.8 69.12 
" style="fill:none;"/>
   </g>
   <g id="patch_5">
    <path d="M 144 504 
L 1036.8 504 
" style="fill:none;"/>
   </g>
   <g id="patch_6">
    <path d="M 144 69.12 
L 1036.8 69.12 
" style="fill:none;"/>
   </g>
   <g id="text_13">
    <!-- Canada -->
    <g style="fill:#262626;" transform="translate(1005.90358 346.407354)scale(0.12 -0.12)">
     <use xlink:href="#ArialMT-67"/>
     <use x="72.216797" xlink:href="#ArialMT-97"/>
     <use x="127.832031" xlink:href="#ArialMT-110"/>
     <use x="183.447266" xlink:href="#ArialMT-97"/>
     <use x="239.0625" xlink:href="#ArialMT-100"/>
     <use x="294.677734" xlink:href="#ArialMT-97"/>
    </g>
   </g>
   <g id="text_14">
    <!-- United States -->
    <g style="fill:#262626;" transform="translate(1000.092341 85.932826)scale(0.12 -0.12)">
     <defs>
      <path d="M 54.6875 71.578125 
L 64.15625 71.578125 
L 64.15625 30.21875 
Q 64.15625 19.4375 61.71875 13.078125 
Q 59.28125 6.734375 52.90625 2.75 
Q 46.53125 -1.21875 36.1875 -1.21875 
Q 26.125 -1.21875 19.71875 2.25 
Q 13.328125 5.71875 10.59375 12.28125 
Q 7.859375 18.84375 7.859375 30.21875 
L 7.859375 71.578125 
L 17.328125 71.578125 
L 17.328125 30.28125 
Q 17.328125 20.953125 19.0625 16.53125 
Q 20.796875 12.109375 25.015625 9.71875 
Q 29.25 7.328125 35.359375 7.328125 
Q 45.796875 7.328125 50.234375 12.0625 
Q 54.6875 16.796875 54.6875 30.28125 
z
" id="ArialMT-85"/>
      <path d="M 4.5 23 
L 13.421875 23.78125 
Q 14.0625 18.40625 16.375 14.96875 
Q 18.703125 11.53125 23.578125 9.40625 
Q 28.46875 7.28125 34.578125 7.28125 
Q 39.984375 7.28125 44.140625 8.890625 
Q 48.296875 10.5 50.3125 13.296875 
Q 52.34375 16.109375 52.34375 19.4375 
Q 52.34375 22.796875 50.390625 25.3125 
Q 48.4375 27.828125 43.953125 29.546875 
Q 41.0625 30.671875 31.203125 33.03125 
Q 21.34375 35.40625 17.390625 37.5 
Q 12.25 40.1875 9.734375 44.15625 
Q 7.234375 48.140625 7.234375 53.078125 
Q 7.234375 58.5 10.296875 63.203125 
Q 13.375 67.921875 19.28125 70.359375 
Q 25.203125 72.796875 32.421875 72.796875 
Q 40.375 72.796875 46.453125 70.234375 
Q 52.546875 67.671875 55.8125 62.6875 
Q 59.078125 57.71875 59.328125 51.421875 
L 50.25 50.734375 
Q 49.515625 57.515625 45.28125 60.984375 
Q 41.0625 64.453125 32.8125 64.453125 
Q 24.21875 64.453125 20.28125 61.296875 
Q 16.359375 58.15625 16.359375 53.71875 
Q 16.359375 49.859375 19.140625 47.359375 
Q 21.875 44.875 33.421875 42.265625 
Q 44.96875 39.65625 49.265625 37.703125 
Q 55.515625 34.8125 58.484375 30.390625 
Q 61.46875 25.984375 61.46875 20.21875 
Q 61.46875 14.5 58.203125 9.4375 
Q 54.9375 4.390625 48.796875 1.578125 
Q 42.671875 -1.21875 35.015625 -1.21875 
Q 25.296875 -1.21875 18.71875 1.609375 
Q 12.15625 4.4375 8.421875 10.125 
Q 4.6875 15.828125 4.5 23 
z
" id="ArialMT-83"/>
     </defs>
     <use xlink:href="#ArialMT-85"/>
     <use x="72.216797" xlink:href="#ArialMT-110"/>
     <use x="127.832031" xlink:href="#ArialMT-105"/>
     <use x="150.048828" xlink:href="#ArialMT-116"/>
     <use x="177.832031" xlink:href="#ArialMT-101"/>
     <use x="233.447266" xlink:href="#ArialMT-100"/>
     <use x="289.0625" xlink:href="#ArialMT-32"/>
     <use x="316.845703" xlink:href="#ArialMT-83"/>
     <use x="383.544922" xlink:href="#ArialMT-116"/>
     <use x="411.328125" xlink:href="#ArialMT-97"/>
     <use x="466.943359" xlink:href="#ArialMT-116"/>
     <use x="494.726562" xlink:href="#ArialMT-101"/>
     <use x="550.341797" xlink:href="#ArialMT-115"/>
    </g>
   </g>
   <g id="text_15">
    <!-- Panama -->
    <g style="fill:#262626;" transform="translate(785.076502 125.394399)scale(0.12 -0.12)">
     <use xlink:href="#ArialMT-80"/>
     <use x="66.699219" xlink:href="#ArialMT-97"/>
     <use x="122.314453" xlink:href="#ArialMT-110"/>
     <use x="177.929688" xlink:href="#ArialMT-97"/>
     <use x="233.544922" xlink:href="#ArialMT-109"/>
     <use x="316.845703" xlink:href="#ArialMT-97"/>
    </g>
   </g>
   <g id="text_16">
    <!-- Bahamas -->
    <g style="fill:#262626;" transform="translate(783.139423 358.742891)scale(0.12 -0.12)">
     <defs>
      <path d="M 7.328125 0 
L 7.328125 71.578125 
L 34.1875 71.578125 
Q 42.390625 71.578125 47.34375 69.40625 
Q 52.296875 67.234375 55.09375 62.71875 
Q 57.90625 58.203125 57.90625 53.265625 
Q 57.90625 48.6875 55.421875 44.625 
Q 52.9375 40.578125 47.90625 38.09375 
Q 54.390625 36.1875 57.875 31.59375 
Q 61.375 27 61.375 20.75 
Q 61.375 15.71875 59.25 11.390625 
Q 57.125 7.078125 54 4.734375 
Q 50.875 2.390625 46.15625 1.1875 
Q 41.453125 0 34.625 0 
z
M 16.796875 41.5 
L 32.28125 41.5 
Q 38.578125 41.5 41.3125 42.328125 
Q 44.921875 43.40625 46.75 45.890625 
Q 48.578125 48.390625 48.578125 52.15625 
Q 48.578125 55.71875 46.875 58.421875 
Q 45.171875 61.140625 41.984375 62.140625 
Q 38.8125 63.140625 31.109375 63.140625 
L 16.796875 63.140625 
z
M 16.796875 8.453125 
L 34.625 8.453125 
Q 39.203125 8.453125 41.0625 8.796875 
Q 44.34375 9.375 46.53125 10.734375 
Q 48.734375 12.109375 50.140625 14.71875 
Q 51.5625 17.328125 51.5625 20.75 
Q 51.5625 24.75 49.515625 27.703125 
Q 47.46875 30.671875 43.828125 31.859375 
Q 40.1875 33.0625 33.34375 33.0625 
L 16.796875 33.0625 
z
" id="ArialMT-66"/>
      <path d="M 6.59375 0 
L 6.59375 71.578125 
L 15.375 71.578125 
L 15.375 45.90625 
Q 21.53125 53.03125 30.90625 53.03125 
Q 36.671875 53.03125 40.921875 50.75 
Q 45.171875 48.484375 47 44.484375 
Q 48.828125 40.484375 48.828125 32.859375 
L 48.828125 0 
L 40.046875 0 
L 40.046875 32.859375 
Q 40.046875 39.453125 37.1875 42.453125 
Q 34.328125 45.453125 29.109375 45.453125 
Q 25.203125 45.453125 21.75 43.421875 
Q 18.3125 41.40625 16.84375 37.9375 
Q 15.375 34.46875 15.375 28.375 
L 15.375 0 
z
" id="ArialMT-104"/>
     </defs>
     <use xlink:href="#ArialMT-66"/>
     <use x="66.699219" xlink:href="#ArialMT-97"/>
     <use x="122.314453" xlink:href="#ArialMT-104"/>
     <use x="177.929688" xlink:href="#ArialMT-97"/>
     <use x="233.544922" xlink:href="#ArialMT-109"/>
     <use x="316.845703" xlink:href="#ArialMT-97"/>
     <use x="372.460938" xlink:href="#ArialMT-115"/>
    </g>
   </g>
   <g id="text_17">
    <!-- Barbados -->
    <g style="fill:#262626;" transform="translate(783.139423 400.431442)scale(0.12 -0.12)">
     <defs>
      <path d="M 14.703125 0 
L 6.546875 0 
L 6.546875 71.578125 
L 15.328125 71.578125 
L 15.328125 46.046875 
Q 20.90625 53.03125 29.546875 53.03125 
Q 34.328125 53.03125 38.59375 51.09375 
Q 42.875 49.171875 45.625 45.671875 
Q 48.390625 42.1875 49.953125 37.25 
Q 51.515625 32.328125 51.515625 26.703125 
Q 51.515625 13.375 44.921875 6.09375 
Q 38.328125 -1.171875 29.109375 -1.171875 
Q 19.921875 -1.171875 14.703125 6.5 
z
M 14.59375 26.3125 
Q 14.59375 17 17.140625 12.84375 
Q 21.296875 6.0625 28.375 6.0625 
Q 34.125 6.0625 38.328125 11.0625 
Q 42.53125 16.0625 42.53125 25.984375 
Q 42.53125 36.140625 38.5 40.96875 
Q 34.46875 45.796875 28.765625 45.796875 
Q 23 45.796875 18.796875 40.796875 
Q 14.59375 35.796875 14.59375 26.3125 
z
" id="ArialMT-98"/>
     </defs>
     <use xlink:href="#ArialMT-66"/>
     <use x="66.699219" xlink:href="#ArialMT-97"/>
     <use x="122.314453" xlink:href="#ArialMT-114"/>
     <use x="155.615234" xlink:href="#ArialMT-98"/>
     <use x="211.230469" xlink:href="#ArialMT-97"/>
     <use x="266.845703" xlink:href="#ArialMT-100"/>
     <use x="322.460938" xlink:href="#ArialMT-111"/>
     <use x="378.076172" xlink:href="#ArialMT-115"/>
    </g>
   </g>
   <g id="text_18">
    <!-- Costa Rica -->
    <g style="fill:#262626;" transform="translate(775.391104 282.879043)scale(0.12 -0.12)">
     <defs>
      <path d="M 7.859375 0 
L 7.859375 71.578125 
L 39.59375 71.578125 
Q 49.171875 71.578125 54.140625 69.640625 
Q 59.125 67.71875 62.109375 62.828125 
Q 65.09375 57.953125 65.09375 52.046875 
Q 65.09375 44.4375 60.15625 39.203125 
Q 55.21875 33.984375 44.921875 32.5625 
Q 48.6875 30.765625 50.640625 29 
Q 54.78125 25.203125 58.5 19.484375 
L 70.953125 0 
L 59.03125 0 
L 49.5625 14.890625 
Q 45.40625 21.34375 42.71875 24.75 
Q 40.046875 28.171875 37.921875 29.53125 
Q 35.796875 30.90625 33.59375 31.453125 
Q 31.984375 31.78125 28.328125 31.78125 
L 17.328125 31.78125 
L 17.328125 0 
z
M 17.328125 39.984375 
L 37.703125 39.984375 
Q 44.1875 39.984375 47.84375 41.328125 
Q 51.515625 42.671875 53.421875 45.625 
Q 55.328125 48.578125 55.328125 52.046875 
Q 55.328125 57.125 51.640625 60.390625 
Q 47.953125 63.671875 39.984375 63.671875 
L 17.328125 63.671875 
z
" id="ArialMT-82"/>
      <path d="M 40.4375 19 
L 49.078125 17.875 
Q 47.65625 8.9375 41.8125 3.875 
Q 35.984375 -1.171875 27.484375 -1.171875 
Q 16.84375 -1.171875 10.375 5.78125 
Q 3.90625 12.75 3.90625 25.734375 
Q 3.90625 34.125 6.6875 40.421875 
Q 9.46875 46.734375 15.15625 49.875 
Q 20.84375 53.03125 27.546875 53.03125 
Q 35.984375 53.03125 41.359375 48.75 
Q 46.734375 44.484375 48.25 36.625 
L 39.703125 35.296875 
Q 38.484375 40.53125 35.375 43.15625 
Q 32.28125 45.796875 27.875 45.796875 
Q 21.234375 45.796875 17.078125 41.03125 
Q 12.9375 36.28125 12.9375 25.984375 
Q 12.9375 15.53125 16.9375 10.796875 
Q 20.953125 6.0625 27.390625 6.0625 
Q 32.5625 6.0625 36.03125 9.234375 
Q 39.5 12.40625 40.4375 19 
z
" id="ArialMT-99"/>
     </defs>
     <use xlink:href="#ArialMT-67"/>
     <use x="72.216797" xlink:href="#ArialMT-111"/>
     <use x="127.832031" xlink:href="#ArialMT-115"/>
     <use x="177.832031" xlink:href="#ArialMT-116"/>
     <use x="205.615234" xlink:href="#ArialMT-97"/>
     <use x="261.230469" xlink:href="#ArialMT-32"/>
     <use x="289.013672" xlink:href="#ArialMT-82"/>
     <use x="361.230469" xlink:href="#ArialMT-105"/>
     <use x="383.447266" xlink:href="#ArialMT-99"/>
     <use x="433.447266" xlink:href="#ArialMT-97"/>
    </g>
   </g>
   <g id="text_19">
    <!-- Trinidad and Tobago -->
    <g style="fill:#262626;" transform="translate(748.27199 427.865697)scale(0.12 -0.12)">
     <defs>
      <path d="M 4.984375 -4.296875 
L 13.53125 -5.5625 
Q 14.0625 -9.515625 16.5 -11.328125 
Q 19.78125 -13.765625 25.4375 -13.765625 
Q 31.546875 -13.765625 34.859375 -11.328125 
Q 38.1875 -8.890625 39.359375 -4.5 
Q 40.046875 -1.8125 39.984375 6.78125 
Q 34.234375 0 25.640625 0 
Q 14.9375 0 9.078125 7.71875 
Q 3.21875 15.4375 3.21875 26.21875 
Q 3.21875 33.640625 5.90625 39.90625 
Q 8.59375 46.1875 13.6875 49.609375 
Q 18.796875 53.03125 25.6875 53.03125 
Q 34.859375 53.03125 40.828125 45.609375 
L 40.828125 51.859375 
L 48.921875 51.859375 
L 48.921875 7.03125 
Q 48.921875 -5.078125 46.453125 -10.125 
Q 44 -15.1875 38.640625 -18.109375 
Q 33.296875 -21.046875 25.484375 -21.046875 
Q 16.21875 -21.046875 10.5 -16.875 
Q 4.78125 -12.703125 4.984375 -4.296875 
z
M 12.25 26.859375 
Q 12.25 16.65625 16.296875 11.96875 
Q 20.359375 7.28125 26.46875 7.28125 
Q 32.515625 7.28125 36.609375 11.9375 
Q 40.71875 16.609375 40.71875 26.5625 
Q 40.71875 36.078125 36.5 40.90625 
Q 32.28125 45.75 26.3125 45.75 
Q 20.453125 45.75 16.34375 40.984375 
Q 12.25 36.234375 12.25 26.859375 
z
" id="ArialMT-103"/>
     </defs>
     <use xlink:href="#ArialMT-84"/>
     <use x="57.333984" xlink:href="#ArialMT-114"/>
     <use x="90.634766" xlink:href="#ArialMT-105"/>
     <use x="112.851562" xlink:href="#ArialMT-110"/>
     <use x="168.466797" xlink:href="#ArialMT-105"/>
     <use x="190.683594" xlink:href="#ArialMT-100"/>
     <use x="246.298828" xlink:href="#ArialMT-97"/>
     <use x="301.914062" xlink:href="#ArialMT-100"/>
     <use x="357.529297" xlink:href="#ArialMT-32"/>
     <use x="385.3125" xlink:href="#ArialMT-97"/>
     <use x="440.927734" xlink:href="#ArialMT-110"/>
     <use x="496.542969" xlink:href="#ArialMT-100"/>
     <use x="552.158203" xlink:href="#ArialMT-32"/>
     <use x="578.191406" xlink:href="#ArialMT-84"/>
     <use x="628.150391" xlink:href="#ArialMT-111"/>
     <use x="683.765625" xlink:href="#ArialMT-98"/>
     <use x="739.380859" xlink:href="#ArialMT-97"/>
     <use x="794.996094" xlink:href="#ArialMT-103"/>
     <use x="850.611328" xlink:href="#ArialMT-111"/>
    </g>
   </g>
   <g id="text_20">
    <!-- Saint Kitts and Nevis -->
    <g style="fill:#262626;" transform="translate(715.341636 447.48015)scale(0.12 -0.12)">
     <defs>
      <path d="M 7.328125 0 
L 7.328125 71.578125 
L 16.796875 71.578125 
L 16.796875 36.078125 
L 52.34375 71.578125 
L 65.1875 71.578125 
L 35.15625 42.578125 
L 66.5 0 
L 54 0 
L 28.515625 36.234375 
L 16.796875 24.8125 
L 16.796875 0 
z
" id="ArialMT-75"/>
      <path d="M 7.625 0 
L 7.625 71.578125 
L 17.328125 71.578125 
L 54.9375 15.375 
L 54.9375 71.578125 
L 64.015625 71.578125 
L 64.015625 0 
L 54.296875 0 
L 16.703125 56.25 
L 16.703125 0 
z
" id="ArialMT-78"/>
     </defs>
     <use xlink:href="#ArialMT-83"/>
     <use x="66.699219" xlink:href="#ArialMT-97"/>
     <use x="122.314453" xlink:href="#ArialMT-105"/>
     <use x="144.53125" xlink:href="#ArialMT-110"/>
     <use x="200.146484" xlink:href="#ArialMT-116"/>
     <use x="227.929688" xlink:href="#ArialMT-32"/>
     <use x="255.712891" xlink:href="#ArialMT-75"/>
     <use x="322.412109" xlink:href="#ArialMT-105"/>
     <use x="344.628906" xlink:href="#ArialMT-116"/>
     <use x="372.412109" xlink:href="#ArialMT-116"/>
     <use x="400.195312" xlink:href="#ArialMT-115"/>
     <use x="450.195312" xlink:href="#ArialMT-32"/>
     <use x="477.978516" xlink:href="#ArialMT-97"/>
     <use x="533.59375" xlink:href="#ArialMT-110"/>
     <use x="589.208984" xlink:href="#ArialMT-100"/>
     <use x="644.824219" xlink:href="#ArialMT-32"/>
     <use x="672.607422" xlink:href="#ArialMT-78"/>
     <use x="744.824219" xlink:href="#ArialMT-101"/>
     <use x="800.439453" xlink:href="#ArialMT-118"/>
     <use x="850.439453" xlink:href="#ArialMT-105"/>
     <use x="872.65625" xlink:href="#ArialMT-115"/>
    </g>
   </g>
   <g id="text_21">
    <!-- Mexico -->
    <g style="fill:#262626;" transform="translate(715.341636 381.981334)scale(0.12 -0.12)">
     <defs>
      <path d="M 7.421875 0 
L 7.421875 71.578125 
L 21.6875 71.578125 
L 38.625 20.90625 
Q 40.96875 13.8125 42.046875 10.296875 
Q 43.265625 14.203125 45.84375 21.78125 
L 62.984375 71.578125 
L 75.734375 71.578125 
L 75.734375 0 
L 66.609375 0 
L 66.609375 59.90625 
L 45.796875 0 
L 37.25 0 
L 16.546875 60.9375 
L 16.546875 0 
z
" id="ArialMT-77"/>
     </defs>
     <use xlink:href="#ArialMT-77"/>
     <use x="83.300781" xlink:href="#ArialMT-101"/>
     <use x="138.916016" xlink:href="#ArialMT-120"/>
     <use x="188.916016" xlink:href="#ArialMT-105"/>
     <use x="211.132812" xlink:href="#ArialMT-99"/>
     <use x="261.132812" xlink:href="#ArialMT-111"/>
    </g>
   </g>
   <g id="text_22">
    <!-- Belize -->
    <g style="fill:#262626;" transform="translate(593.305619 327.163082)scale(0.12 -0.12)">
     <defs>
      <path d="M 1.953125 0 
L 1.953125 7.125 
L 34.96875 45.015625 
Q 29.34375 44.734375 25.046875 44.734375 
L 3.90625 44.734375 
L 3.90625 51.859375 
L 46.296875 51.859375 
L 46.296875 46.046875 
L 18.21875 13.140625 
L 12.796875 7.125 
Q 18.703125 7.5625 23.875 7.5625 
L 47.859375 7.5625 
L 47.859375 0 
z
" id="ArialMT-122"/>
     </defs>
     <use xlink:href="#ArialMT-66"/>
     <use x="66.699219" xlink:href="#ArialMT-101"/>
     <use x="122.314453" xlink:href="#ArialMT-108"/>
     <use x="144.53125" xlink:href="#ArialMT-105"/>
     <use x="166.748047" xlink:href="#ArialMT-122"/>
     <use x="216.748047" xlink:href="#ArialMT-101"/>
    </g>
   </g>
   <g id="text_23">
    <!-- Nicaragua -->
    <g style="fill:#262626;" transform="translate(484.82916 446.767202)scale(0.12 -0.12)">
     <use xlink:href="#ArialMT-78"/>
     <use x="72.216797" xlink:href="#ArialMT-105"/>
     <use x="94.433594" xlink:href="#ArialMT-99"/>
     <use x="144.433594" xlink:href="#ArialMT-97"/>
     <use x="200.048828" xlink:href="#ArialMT-114"/>
     <use x="233.349609" xlink:href="#ArialMT-97"/>
     <use x="288.964844" xlink:href="#ArialMT-103"/>
     <use x="344.580078" xlink:href="#ArialMT-117"/>
     <use x="400.195312" xlink:href="#ArialMT-97"/>
    </g>
   </g>
   <g id="text_24">
    <!-- Honduras -->
    <g style="fill:#262626;" transform="translate(434.46509 375.17684)scale(0.12 -0.12)">
     <use xlink:href="#ArialMT-72"/>
     <use x="72.216797" xlink:href="#ArialMT-111"/>
     <use x="127.832031" xlink:href="#ArialMT-110"/>
     <use x="183.447266" xlink:href="#ArialMT-100"/>
     <use x="239.0625" xlink:href="#ArialMT-117"/>
     <use x="294.677734" xlink:href="#ArialMT-114"/>
     <use x="327.978516" xlink:href="#ArialMT-97"/>
     <use x="383.59375" xlink:href="#ArialMT-115"/>
    </g>
   </g>
   <g id="text_25">
    <!-- Haiti -->
    <g style="fill:#262626;" transform="translate(194.267216 446.319104)scale(0.12 -0.12)">
     <use xlink:href="#ArialMT-72"/>
     <use x="72.216797" xlink:href="#ArialMT-97"/>
     <use x="127.832031" xlink:href="#ArialMT-105"/>
     <use x="150.048828" xlink:href="#ArialMT-116"/>
     <use x="177.832031" xlink:href="#ArialMT-105"/>
    </g>
   </g>
   <g id="text_26">
    <!-- Human Development Index vs. Confirmed COVID-19 Cases -->
    <g style="fill:#262626;" transform="translate(417.7275 49.370063)scale(0.13 -0.13)">
     <defs>
      <path d="M 4.828125 34.859375 
Q 4.828125 52.6875 14.390625 62.765625 
Q 23.96875 72.859375 39.109375 72.859375 
Q 49.03125 72.859375 56.984375 68.109375 
Q 64.9375 63.375 69.109375 54.90625 
Q 73.296875 46.4375 73.296875 35.6875 
Q 73.296875 24.8125 68.890625 16.21875 
Q 64.5 7.625 56.4375 3.203125 
Q 48.390625 -1.21875 39.0625 -1.21875 
Q 28.953125 -1.21875 20.984375 3.65625 
Q 13.03125 8.546875 8.921875 16.984375 
Q 4.828125 25.4375 4.828125 34.859375 
z
M 14.59375 34.71875 
Q 14.59375 21.78125 21.546875 14.328125 
Q 28.515625 6.890625 39.015625 6.890625 
Q 49.703125 6.890625 56.609375 14.40625 
Q 63.53125 21.921875 63.53125 35.75 
Q 63.53125 44.484375 60.578125 51 
Q 57.625 57.515625 51.921875 61.109375 
Q 46.234375 64.703125 39.15625 64.703125 
Q 29.109375 64.703125 21.84375 57.78125 
Q 14.59375 50.875 14.59375 34.71875 
z
" id="ArialMT-79"/>
      <path d="M 28.171875 0 
L 0.4375 71.578125 
L 10.6875 71.578125 
L 29.296875 19.578125 
Q 31.546875 13.328125 33.0625 7.859375 
Q 34.71875 13.71875 36.921875 19.578125 
L 56.25 71.578125 
L 65.921875 71.578125 
L 37.890625 0 
z
" id="ArialMT-86"/>
      <path d="M 3.171875 21.484375 
L 3.171875 30.328125 
L 30.171875 30.328125 
L 30.171875 21.484375 
z
" id="ArialMT-45"/>
      <path d="M 37.25 0 
L 28.46875 0 
L 28.46875 56 
Q 25.296875 52.984375 20.140625 49.953125 
Q 14.984375 46.921875 10.890625 45.40625 
L 10.890625 53.90625 
Q 18.265625 57.375 23.78125 62.296875 
Q 29.296875 67.234375 31.59375 71.875 
L 37.25 71.875 
z
" id="ArialMT-49"/>
     </defs>
     <use xlink:href="#ArialMT-72"/>
     <use x="72.216797" xlink:href="#ArialMT-117"/>
     <use x="127.832031" xlink:href="#ArialMT-109"/>
     <use x="211.132812" xlink:href="#ArialMT-97"/>
     <use x="266.748047" xlink:href="#ArialMT-110"/>
     <use x="322.363281" xlink:href="#ArialMT-32"/>
     <use x="350.146484" xlink:href="#ArialMT-68"/>
     <use x="422.363281" xlink:href="#ArialMT-101"/>
     <use x="477.978516" xlink:href="#ArialMT-118"/>
     <use x="527.978516" xlink:href="#ArialMT-101"/>
     <use x="583.59375" xlink:href="#ArialMT-108"/>
     <use x="605.810547" xlink:href="#ArialMT-111"/>
     <use x="661.425781" xlink:href="#ArialMT-112"/>
     <use x="717.041016" xlink:href="#ArialMT-109"/>
     <use x="800.341797" xlink:href="#ArialMT-101"/>
     <use x="855.957031" xlink:href="#ArialMT-110"/>
     <use x="911.572266" xlink:href="#ArialMT-116"/>
     <use x="939.355469" xlink:href="#ArialMT-32"/>
     <use x="967.138672" xlink:href="#ArialMT-73"/>
     <use x="994.921875" xlink:href="#ArialMT-110"/>
     <use x="1050.537109" xlink:href="#ArialMT-100"/>
     <use x="1106.152344" xlink:href="#ArialMT-101"/>
     <use x="1161.767578" xlink:href="#ArialMT-120"/>
     <use x="1211.767578" xlink:href="#ArialMT-32"/>
     <use x="1239.550781" xlink:href="#ArialMT-118"/>
     <use x="1289.550781" xlink:href="#ArialMT-115"/>
     <use x="1339.550781" xlink:href="#ArialMT-46"/>
     <use x="1367.333984" xlink:href="#ArialMT-32"/>
     <use x="1395.117188" xlink:href="#ArialMT-67"/>
     <use x="1467.333984" xlink:href="#ArialMT-111"/>
     <use x="1522.949219" xlink:href="#ArialMT-110"/>
     <use x="1578.564453" xlink:href="#ArialMT-102"/>
     <use x="1606.347656" xlink:href="#ArialMT-105"/>
     <use x="1628.564453" xlink:href="#ArialMT-114"/>
     <use x="1661.865234" xlink:href="#ArialMT-109"/>
     <use x="1745.166016" xlink:href="#ArialMT-101"/>
     <use x="1800.78125" xlink:href="#ArialMT-100"/>
     <use x="1856.396484" xlink:href="#ArialMT-32"/>
     <use x="1884.179688" xlink:href="#ArialMT-67"/>
     <use x="1956.396484" xlink:href="#ArialMT-79"/>
     <use x="2034.179688" xlink:href="#ArialMT-86"/>
     <use x="2100.878906" xlink:href="#ArialMT-73"/>
     <use x="2128.662109" xlink:href="#ArialMT-68"/>
     <use x="2200.878906" xlink:href="#ArialMT-45"/>
     <use x="2234.179688" xlink:href="#ArialMT-49"/>
     <use x="2289.794922" xlink:href="#ArialMT-57"/>
     <use x="2345.410156" xlink:href="#ArialMT-32"/>
     <use x="2373.193359" xlink:href="#ArialMT-67"/>
     <use x="2445.410156" xlink:href="#ArialMT-97"/>
     <use x="2501.025391" xlink:href="#ArialMT-115"/>
     <use x="2551.025391" xlink:href="#ArialMT-101"/>
     <use x="2606.640625" xlink:href="#ArialMT-115"/>
    </g>
    <!-- for North America -->
    <g style="fill:#262626;" transform="translate(539.83 63.12)scale(0.13 -0.13)">
     <defs>
      <path d="M -0.140625 0 
L 27.34375 71.578125 
L 37.546875 71.578125 
L 66.84375 0 
L 56.0625 0 
L 47.703125 21.6875 
L 17.78125 21.6875 
L 9.90625 0 
z
M 20.515625 29.390625 
L 44.78125 29.390625 
L 37.3125 49.21875 
Q 33.890625 58.25 32.234375 64.0625 
Q 30.859375 57.171875 28.375 50.390625 
z
" id="ArialMT-65"/>
     </defs>
     <use xlink:href="#ArialMT-102"/>
     <use x="27.783203" xlink:href="#ArialMT-111"/>
     <use x="83.398438" xlink:href="#ArialMT-114"/>
     <use x="116.699219" xlink:href="#ArialMT-32"/>
     <use x="144.482422" xlink:href="#ArialMT-78"/>
     <use x="216.699219" xlink:href="#ArialMT-111"/>
     <use x="272.314453" xlink:href="#ArialMT-114"/>
     <use x="305.615234" xlink:href="#ArialMT-116"/>
     <use x="333.398438" xlink:href="#ArialMT-104"/>
     <use x="389.013672" xlink:href="#ArialMT-32"/>
     <use x="411.296875" xlink:href="#ArialMT-65"/>
     <use x="477.996094" xlink:href="#ArialMT-109"/>
     <use x="561.296875" xlink:href="#ArialMT-101"/>
     <use x="616.912109" xlink:href="#ArialMT-114"/>
     <use x="650.212891" xlink:href="#ArialMT-105"/>
     <use x="672.429688" xlink:href="#ArialMT-99"/>
     <use x="722.429688" xlink:href="#ArialMT-97"/>
    </g>
   </g>
   <g id="legend_1">
    <g id="text_27">
     <!-- Population Density (km) -->
     <g style="fill:#262626;" transform="translate(153 85.399688)scale(0.1 -0.1)">
      <defs>
       <path d="M 6.203125 -19.96875 
L 5.21875 -11.71875 
Q 8.109375 -12.5 10.25 -12.5 
Q 13.1875 -12.5 14.9375 -11.515625 
Q 16.703125 -10.546875 17.828125 -8.796875 
Q 18.65625 -7.46875 20.515625 -2.25 
Q 20.75 -1.515625 21.296875 -0.09375 
L 1.609375 51.859375 
L 11.078125 51.859375 
L 21.875 21.828125 
Q 23.96875 16.109375 25.640625 9.8125 
Q 27.15625 15.875 29.25 21.625 
L 40.328125 51.859375 
L 49.125 51.859375 
L 29.390625 -0.875 
Q 26.21875 -9.421875 24.46875 -12.640625 
Q 22.125 -17 19.09375 -19.015625 
Q 16.0625 -21.046875 11.859375 -21.046875 
Q 9.328125 -21.046875 6.203125 -19.96875 
z
" id="ArialMT-121"/>
       <path d="M 6.640625 0 
L 6.640625 71.578125 
L 15.4375 71.578125 
L 15.4375 30.765625 
L 36.234375 51.859375 
L 47.609375 51.859375 
L 27.78125 32.625 
L 49.609375 0 
L 38.765625 0 
L 21.625 26.515625 
L 15.4375 20.5625 
L 15.4375 0 
z
" id="ArialMT-107"/>
       <path d="M 1.21875 35.796875 
Q 1.515625 38.578125 3.515625 41.359375 
Q 6.59375 45.5625 13.625 50.65625 
Q 20.65625 55.765625 21.96875 57.234375 
Q 23.78125 59.234375 23.78125 61.328125 
Q 23.78125 63.671875 22.0625 65.1875 
Q 20.359375 66.703125 17.046875 66.703125 
Q 13.8125 66.703125 12.21875 65.546875 
Q 10.640625 64.40625 9.625 61.140625 
L 2.25 61.921875 
Q 3.65625 67.328125 7.140625 69.890625 
Q 10.640625 72.46875 17.1875 72.46875 
Q 24.5625 72.46875 28 69.578125 
Q 31.453125 66.703125 31.453125 62.546875 
Q 31.453125 58.453125 28.5625 54.78125 
Q 26.375 52.046875 18.5625 46.4375 
Q 14.5 43.453125 12.796875 41.703125 
L 31.640625 41.703125 
L 31.640625 35.796875 
z
" id="ArialMT-178"/>
      </defs>
      <use xlink:href="#ArialMT-80"/>
      <use x="66.699219" xlink:href="#ArialMT-111"/>
      <use x="122.314453" xlink:href="#ArialMT-112"/>
      <use x="177.929688" xlink:href="#ArialMT-117"/>
      <use x="233.544922" xlink:href="#ArialMT-108"/>
      <use x="255.761719" xlink:href="#ArialMT-97"/>
      <use x="311.376953" xlink:href="#ArialMT-116"/>
      <use x="339.160156" xlink:href="#ArialMT-105"/>
      <use x="361.376953" xlink:href="#ArialMT-111"/>
      <use x="416.992188" xlink:href="#ArialMT-110"/>
      <use x="472.607422" xlink:href="#ArialMT-32"/>
      <use x="500.390625" xlink:href="#ArialMT-68"/>
      <use x="572.607422" xlink:href="#ArialMT-101"/>
      <use x="628.222656" xlink:href="#ArialMT-110"/>
      <use x="683.837891" xlink:href="#ArialMT-115"/>
      <use x="733.837891" xlink:href="#ArialMT-105"/>
      <use x="756.054688" xlink:href="#ArialMT-116"/>
      <use x="783.837891" xlink:href="#ArialMT-121"/>
      <use x="833.837891" xlink:href="#ArialMT-32"/>
      <use x="861.621094" xlink:href="#ArialMT-40"/>
      <use x="894.921875" xlink:href="#ArialMT-107"/>
      <use x="944.921875" xlink:href="#ArialMT-109"/>
      <use x="1028.222656" xlink:href="#ArialMT-178"/>
      <use x="1061.523438" xlink:href="#ArialMT-41"/>
     </g>
    </g>
    <g id="line2d_22"/>
    <g id="line2d_23">
     <defs>
      <path d="M 0 4.472136 
C 1.186024 4.472136 2.323632 4.000923 3.162278 3.162278 
C 4.000923 2.323632 4.472136 1.186024 4.472136 0 
C 4.472136 -1.186024 4.000923 -2.323632 3.162278 -3.162278 
C 2.323632 -4.000923 1.186024 -4.472136 0 -4.472136 
C -1.186024 -4.472136 -2.323632 -4.000923 -3.162278 -3.162278 
C -4.000923 -2.323632 -4.472136 -1.186024 -4.472136 0 
C -4.472136 1.186024 -4.000923 2.323632 -3.162278 3.162278 
C -2.323632 4.000923 -1.186024 4.472136 0 4.472136 
z
" id="md1dbcdf608" style="stroke:#00008b;stroke-opacity:0.5;stroke-width:0.3;"/>
     </defs>
     <g>
      <use style="fill:#00008b;fill-opacity:0.5;stroke:#00008b;stroke-opacity:0.5;stroke-width:0.3;" x="195.388281" xlink:href="#md1dbcdf608" y="96.162188"/>
     </g>
    </g>
    <g id="text_28">
     <!-- $\mathdefault{80}$ -->
     <g style="fill:#262626;" transform="translate(213.388281 99.662188)scale(0.1 -0.1)">
      <use transform="translate(0 0.125)" xlink:href="#ArialMT-56"/>
      <use transform="translate(55.615234 0.125)" xlink:href="#ArialMT-48"/>
     </g>
    </g>
    <g id="line2d_24"/>
    <g id="line2d_25">
     <defs>
      <path d="M 0 6.324555 
C 1.677292 6.324555 3.286112 5.65816 4.472136 4.472136 
C 5.65816 3.286112 6.324555 1.677292 6.324555 0 
C 6.324555 -1.677292 5.65816 -3.286112 4.472136 -4.472136 
C 3.286112 -5.65816 1.677292 -6.324555 0 -6.324555 
C -1.677292 -6.324555 -3.286112 -5.65816 -4.472136 -4.472136 
C -5.65816 -3.286112 -6.324555 -1.677292 -6.324555 0 
C -6.324555 1.677292 -5.65816 3.286112 -4.472136 4.472136 
C -3.286112 5.65816 -1.677292 6.324555 0 6.324555 
z
" id="m8ac06bdef6" style="stroke:#00008b;stroke-opacity:0.5;stroke-width:0.3;"/>
     </defs>
     <g>
      <use style="fill:#00008b;fill-opacity:0.5;stroke:#00008b;stroke-opacity:0.5;stroke-width:0.3;" x="195.388281" xlink:href="#m8ac06bdef6" y="110.3075"/>
     </g>
    </g>
    <g id="text_29">
     <!-- $\mathdefault{160}$ -->
     <g style="fill:#262626;" transform="translate(213.388281 113.8075)scale(0.1 -0.1)">
      <use transform="translate(0 0.125)" xlink:href="#ArialMT-49"/>
      <use transform="translate(55.615234 0.125)" xlink:href="#ArialMT-54"/>
      <use transform="translate(111.230469 0.125)" xlink:href="#ArialMT-48"/>
     </g>
    </g>
    <g id="line2d_26"/>
    <g id="line2d_27">
     <defs>
      <path d="M 0 7.745967 
C 2.054254 7.745967 4.024648 6.929803 5.477226 5.477226 
C 6.929803 4.024648 7.745967 2.054254 7.745967 0 
C 7.745967 -2.054254 6.929803 -4.024648 5.477226 -5.477226 
C 4.024648 -6.929803 2.054254 -7.745967 0 -7.745967 
C -2.054254 -7.745967 -4.024648 -6.929803 -5.477226 -5.477226 
C -6.929803 -4.024648 -7.745967 -2.054254 -7.745967 0 
C -7.745967 2.054254 -6.929803 4.024648 -5.477226 5.477226 
C -4.024648 6.929803 -2.054254 7.745967 0 7.745967 
z
" id="me6dde42abf" style="stroke:#00008b;stroke-opacity:0.5;stroke-width:0.3;"/>
     </defs>
     <g>
      <use style="fill:#00008b;fill-opacity:0.5;stroke:#00008b;stroke-opacity:0.5;stroke-width:0.3;" x="195.388281" xlink:href="#me6dde42abf" y="124.452813"/>
     </g>
    </g>
    <g id="text_30">
     <!-- $\mathdefault{240}$ -->
     <g style="fill:#262626;" transform="translate(213.388281 127.952813)scale(0.1 -0.1)">
      <use transform="translate(0 0.125)" xlink:href="#ArialMT-50"/>
      <use transform="translate(55.615234 0.125)" xlink:href="#ArialMT-52"/>
      <use transform="translate(111.230469 0.125)" xlink:href="#ArialMT-48"/>
     </g>
    </g>
    <g id="line2d_28"/>
    <g id="line2d_29">
     <defs>
      <path d="M 0 8.944272 
C 2.372049 8.944272 4.647264 8.001847 6.324555 6.324555 
C 8.001847 4.647264 8.944272 2.372049 8.944272 0 
C 8.944272 -2.372049 8.001847 -4.647264 6.324555 -6.324555 
C 4.647264 -8.001847 2.372049 -8.944272 0 -8.944272 
C -2.372049 -8.944272 -4.647264 -8.001847 -6.324555 -6.324555 
C -8.001847 -4.647264 -8.944272 -2.372049 -8.944272 0 
C -8.944272 2.372049 -8.001847 4.647264 -6.324555 6.324555 
C -4.647264 8.001847 -2.372049 8.944272 0 8.944272 
z
" id="m8d6ad6634d" style="stroke:#00008b;stroke-opacity:0.5;stroke-width:0.3;"/>
     </defs>
     <g>
      <use style="fill:#00008b;fill-opacity:0.5;stroke:#00008b;stroke-opacity:0.5;stroke-width:0.3;" x="195.388281" xlink:href="#m8d6ad6634d" y="138.598125"/>
     </g>
    </g>
    <g id="text_31">
     <!-- $\mathdefault{320}$ -->
     <g style="fill:#262626;" transform="translate(213.388281 142.098125)scale(0.1 -0.1)">
      <defs>
       <path d="M 4.203125 18.890625 
L 12.984375 20.0625 
Q 14.5 12.59375 18.140625 9.296875 
Q 21.78125 6 27 6 
Q 33.203125 6 37.46875 10.296875 
Q 41.75 14.59375 41.75 20.953125 
Q 41.75 27 37.796875 30.921875 
Q 33.84375 34.859375 27.734375 34.859375 
Q 25.25 34.859375 21.53125 33.890625 
L 22.515625 41.609375 
Q 23.390625 41.5 23.921875 41.5 
Q 29.546875 41.5 34.03125 44.421875 
Q 38.53125 47.359375 38.53125 53.46875 
Q 38.53125 58.296875 35.25 61.46875 
Q 31.984375 64.65625 26.8125 64.65625 
Q 21.6875 64.65625 18.265625 61.421875 
Q 14.84375 58.203125 13.875 51.765625 
L 5.078125 53.328125 
Q 6.6875 62.15625 12.390625 67.015625 
Q 18.109375 71.875 26.609375 71.875 
Q 32.46875 71.875 37.390625 69.359375 
Q 42.328125 66.84375 44.9375 62.5 
Q 47.5625 58.15625 47.5625 53.265625 
Q 47.5625 48.640625 45.0625 44.828125 
Q 42.578125 41.015625 37.703125 38.765625 
Q 44.046875 37.3125 47.5625 32.6875 
Q 51.078125 28.078125 51.078125 21.140625 
Q 51.078125 11.765625 44.234375 5.25 
Q 37.40625 -1.265625 26.953125 -1.265625 
Q 17.53125 -1.265625 11.296875 4.34375 
Q 5.078125 9.96875 4.203125 18.890625 
z
" id="ArialMT-51"/>
      </defs>
      <use transform="translate(0 0.125)" xlink:href="#ArialMT-51"/>
      <use transform="translate(55.615234 0.125)" xlink:href="#ArialMT-50"/>
      <use transform="translate(111.230469 0.125)" xlink:href="#ArialMT-48"/>
     </g>
    </g>
    <g id="line2d_30"/>
    <g id="line2d_31">
     <defs>
      <path d="M 0 10 
C 2.652031 10 5.195799 8.946337 7.071068 7.071068 
C 8.946337 5.195799 10 2.652031 10 0 
C 10 -2.652031 8.946337 -5.195799 7.071068 -7.071068 
C 5.195799 -8.946337 2.652031 -10 0 -10 
C -2.652031 -10 -5.195799 -8.946337 -7.071068 -7.071068 
C -8.946337 -5.195799 -10 -2.652031 -10 0 
C -10 2.652031 -8.946337 5.195799 -7.071068 7.071068 
C -5.195799 8.946337 -2.652031 10 0 10 
z
" id="mb94672eb46" style="stroke:#00008b;stroke-opacity:0.5;stroke-width:0.3;"/>
     </defs>
     <g>
      <use style="fill:#00008b;fill-opacity:0.5;stroke:#00008b;stroke-opacity:0.5;stroke-width:0.3;" x="195.388281" xlink:href="#mb94672eb46" y="152.743438"/>
     </g>
    </g>
    <g id="text_32">
     <!-- $\mathdefault{400}$ -->
     <g style="fill:#262626;" transform="translate(213.388281 156.243438)scale(0.1 -0.1)">
      <use transform="translate(0 0.125)" xlink:href="#ArialMT-52"/>
      <use transform="translate(55.615234 0.125)" xlink:href="#ArialMT-48"/>
      <use transform="translate(111.230469 0.125)" xlink:href="#ArialMT-48"/>
     </g>
    </g>
    <g id="line2d_32"/>
    <g id="line2d_33">
     <defs>
      <path d="M 0 10.954451 
C 2.905154 10.954451 5.691712 9.800221 7.745967 7.745967 
C 9.800221 5.691712 10.954451 2.905154 10.954451 0 
C 10.954451 -2.905154 9.800221 -5.691712 7.745967 -7.745967 
C 5.691712 -9.800221 2.905154 -10.954451 0 -10.954451 
C -2.905154 -10.954451 -5.691712 -9.800221 -7.745967 -7.745967 
C -9.800221 -5.691712 -10.954451 -2.905154 -10.954451 0 
C -10.954451 2.905154 -9.800221 5.691712 -7.745967 7.745967 
C -5.691712 9.800221 -2.905154 10.954451 0 10.954451 
z
" id="m5ea2654967" style="stroke:#00008b;stroke-opacity:0.5;stroke-width:0.3;"/>
     </defs>
     <g>
      <use style="fill:#00008b;fill-opacity:0.5;stroke:#00008b;stroke-opacity:0.5;stroke-width:0.3;" x="195.388281" xlink:href="#m5ea2654967" y="166.88875"/>
     </g>
    </g>
    <g id="text_33">
     <!-- $\mathdefault{480}$ -->
     <g style="fill:#262626;" transform="translate(213.388281 170.38875)scale(0.1 -0.1)">
      <use transform="translate(0 0.125)" xlink:href="#ArialMT-52"/>
      <use transform="translate(55.615234 0.125)" xlink:href="#ArialMT-56"/>
      <use transform="translate(111.230469 0.125)" xlink:href="#ArialMT-48"/>
     </g>
    </g>
    <g id="line2d_34"/>
    <g id="line2d_35">
     <defs>
      <path d="M 0 11.83216 
C 3.137925 11.83216 6.147752 10.585449 8.3666 8.3666 
C 10.585449 6.147752 11.83216 3.137925 11.83216 0 
C 11.83216 -3.137925 10.585449 -6.147752 8.3666 -8.3666 
C 6.147752 -10.585449 3.137925 -11.83216 0 -11.83216 
C -3.137925 -11.83216 -6.147752 -10.585449 -8.3666 -8.3666 
C -10.585449 -6.147752 -11.83216 -3.137925 -11.83216 0 
C -11.83216 3.137925 -10.585449 6.147752 -8.3666 8.3666 
C -6.147752 10.585449 -3.137925 11.83216 0 11.83216 
z
" id="mc9a4d5e588" style="stroke:#00008b;stroke-opacity:0.5;stroke-width:0.3;"/>
     </defs>
     <g>
      <use style="fill:#00008b;fill-opacity:0.5;stroke:#00008b;stroke-opacity:0.5;stroke-width:0.3;" x="195.388281" xlink:href="#mc9a4d5e588" y="181.034063"/>
     </g>
    </g>
    <g id="text_34">
     <!-- $\mathdefault{560}$ -->
     <g style="fill:#262626;" transform="translate(213.388281 184.534063)scale(0.1 -0.1)">
      <use transform="translate(0 0.125)" xlink:href="#ArialMT-53"/>
      <use transform="translate(55.615234 0.125)" xlink:href="#ArialMT-54"/>
      <use transform="translate(111.230469 0.125)" xlink:href="#ArialMT-48"/>
     </g>
    </g>
    <g id="line2d_36"/>
    <g id="line2d_37">
     <defs>
      <path d="M 0 12.649111 
C 3.354583 12.649111 6.572223 11.316321 8.944272 8.944272 
C 11.316321 6.572223 12.649111 3.354583 12.649111 0 
C 12.649111 -3.354583 11.316321 -6.572223 8.944272 -8.944272 
C 6.572223 -11.316321 3.354583 -12.649111 0 -12.649111 
C -3.354583 -12.649111 -6.572223 -11.316321 -8.944272 -8.944272 
C -11.316321 -6.572223 -12.649111 -3.354583 -12.649111 0 
C -12.649111 3.354583 -11.316321 6.572223 -8.944272 8.944272 
C -6.572223 11.316321 -3.354583 12.649111 0 12.649111 
z
" id="m9119fc3cb5" style="stroke:#00008b;stroke-opacity:0.5;stroke-width:0.3;"/>
     </defs>
     <g>
      <use style="fill:#00008b;fill-opacity:0.5;stroke:#00008b;stroke-opacity:0.5;stroke-width:0.3;" x="195.388281" xlink:href="#m9119fc3cb5" y="195.179375"/>
     </g>
    </g>
    <g id="text_35">
     <!-- $\mathdefault{640}$ -->
     <g style="fill:#262626;" transform="translate(213.388281 198.679375)scale(0.1 -0.1)">
      <use transform="translate(0 0.125)" xlink:href="#ArialMT-54"/>
      <use transform="translate(55.615234 0.125)" xlink:href="#ArialMT-52"/>
      <use transform="translate(111.230469 0.125)" xlink:href="#ArialMT-48"/>
     </g>
    </g>
    <g id="line2d_38"/>
    <g id="line2d_39">
     <defs>
      <path d="M 0 13.416408 
C 3.558073 13.416408 6.970895 12.00277 9.486833 9.486833 
C 12.00277 6.970895 13.416408 3.558073 13.416408 0 
C 13.416408 -3.558073 12.00277 -6.970895 9.486833 -9.486833 
C 6.970895 -12.00277 3.558073 -13.416408 0 -13.416408 
C -3.558073 -13.416408 -6.970895 -12.00277 -9.486833 -9.486833 
C -12.00277 -6.970895 -13.416408 -3.558073 -13.416408 0 
C -13.416408 3.558073 -12.00277 6.970895 -9.486833 9.486833 
C -6.970895 12.00277 -3.558073 13.416408 0 13.416408 
z
" id="m030334e72a" style="stroke:#00008b;stroke-opacity:0.5;stroke-width:0.3;"/>
     </defs>
     <g>
      <use style="fill:#00008b;fill-opacity:0.5;stroke:#00008b;stroke-opacity:0.5;stroke-width:0.3;" x="195.388281" xlink:href="#m030334e72a" y="209.324688"/>
     </g>
    </g>
    <g id="text_36">
     <!-- $\mathdefault{720}$ -->
     <g style="fill:#262626;" transform="translate(213.388281 212.824688)scale(0.1 -0.1)">
      <use transform="translate(0 0.125)" xlink:href="#ArialMT-55"/>
      <use transform="translate(53.865234 0.125)" xlink:href="#ArialMT-50"/>
      <use transform="translate(109.480469 0.125)" xlink:href="#ArialMT-48"/>
     </g>
    </g>
   </g>
  </g>
 </g>
 <defs>
  <clipPath id="p12accb8ef5">
   <rect height="434.88" width="892.8" x="144" y="69.12"/>
  </clipPath>
 </defs>
</svg>
